<?xml version="1.0" encoding="utf-8"?>
<!-- Generator: Adobe Illustrator 22.1.0, SVG Export Plug-In . SVG Version: 6.00 Build 0)  -->
<svg version="1.1" id="Layer_1" xmlns="http://www.w3.org/2000/svg" xmlns:xlink="http://www.w3.org/1999/xlink" x="0px" y="0px"
	 viewBox="0 0 300 300" style="enable-background:new 0 0 300 300;" xml:space="preserve">
<style type="text/css">
	.st0{fill:#010101;}
</style>
<path class="st0" d="M107.7,81.2c-11,0-19.8-8.8-19.8-19.8c0-11,8.8-19.8,19.8-19.8c11,0,19.8,8.8,19.8,19.8
	C127.5,72.4,118.7,81.2,107.7,81.2z M156.9,113.4l28.6-17.9c3-1.9,7.8-0.7,9.7,2.2l1.4,2.2c1.9,3,0.8,7.8-2.2,9.7L160,131.2
	l-0.1,0.1c-0.5,0.5-1.2,0.9-1.9,1.1c-3,1.5-7.5,0.3-9.3-2.5l-1-1.5l-11.5-12.8v29.1h0h110.2c3.7,0,7.1,1,9.7,2.7l7-8.4
	c0,0,5.7-10.6,19.8-7.9c13.7,2.6,13.7,13.7,13.7,13.7l-0.4,56l-22,0.4l0.9-53.3c0,0-4.4-8.4-9.7-0.4c-1.4,2.1-2.7,4.1-3.8,5.9
	c1,2.1,1.6,4.4,1.6,6.9v44.6l14,21.7c2.3,1.6,3.6,5.4,3.6,8.1v52.9c0,3.5-3.5,7-7.1,7h-7c-3.5,0-7-3.5-7-7v-46.2
	c-4.7-4-12.7-10.4-22.5-16.4c-0.5-0.3-1-0.6-1.5-0.8l-3.1,16.2c0.1,0.3,0,0.7-0.1,1.1c-0.1,0.7-0.2,1.4-0.5,2l-22.3,47.9
	c-1.5,3.2-6.2,4.9-9.4,3.4l-6.4-3c-3.2-1.5-4.9-6.2-3.4-9.4l20.5-44c-0.9-4.5-2.4-10.6-4.9-16.9c-0.6-1.5-1.5-3.1-2.4-4.7l-74.4-5.4
	v77.9c0,3.5-3.5,7.1-7,7.1h-7c-3.5,0-7-3.5-7-7.1v-79.4c-1.5-0.2-3.1-0.5-4.7-1l-43.6,6.6l9,24.8c1.2,3.3-0.9,7.8-4.2,9l-6.6,2.4
	c-3.3,1.2-7.8-0.9-9-4.2l-14.5-39.8c-1.2-3.3,0.9-7.8,4.2-9l1.6-0.6c0.8-0.7,1.7-1.2,2.7-1.5l37.2-9.3c-0.2-0.7-0.2-1.5-0.2-2.2
	v-33.9v-48.9H10.3c-3.5,0-7.1-3.5-7.1-7v-2.6c0-3.5,3.1-7,7.1-7H87h2.2h40.1c2.5,0,4.9,1.7,6.2,4L156.9,113.4"/>
<path class="st0" d="M16.5,95.3c0,0.1,0,0.3,0,0.4c0,0.1,0,0.3,0,0.4c0,0-1.8,15.9,0,32.2c2.2,25.6,11.5,51.6,11.5,51.6
	c0,2.6-3.1,6.6-5.3,6.6l-1.8-1.8c-2.2,0,1.8-2.2,1.8-4.8c0,0-9.2-20.3-13.2-51.6c-1.3-9.7-1.8-30.8-1.8-30.8c0-0.6,0.3-1.2,0.7-1.8
	c-0.4-0.6-0.7-1.2-0.7-1.8c0,0,0.4-21.1,1.8-30.8c4-31.3,13.2-51.6,13.2-51.6c0-2.6-4-4.8-1.8-4.8L22.7,5c2.2,0,5.3,4,5.3,6.6
	c0,0-9.3,26-11.5,51.6C14.7,79.5,16.5,95.3,16.5,95.3z"/>
</svg>
