<?xml version="1.0" encoding="utf-8"?>
<!-- Generator: Adobe Illustrator 22.1.0, SVG Export Plug-In . SVG Version: 6.00 Build 0)  -->
<svg version="1.1" id="Layer_1" xmlns="http://www.w3.org/2000/svg" xmlns:xlink="http://www.w3.org/1999/xlink" x="0px" y="0px"
	 viewBox="0 0 100 100" style="enable-background:new 0 0 100 100;" xml:space="preserve">
<style type="text/css">
	.st0{display:none;}
	.st1{display:inline;}
</style>
<g class="st0">
	<path class="st1" d="M95,5v90H5V5H95 M95.2,4.8H95H5H4.8V5v90v0.2H5h90h0.2V95V5V4.8L95.2,4.8z"/>
</g>
<g>
	<g>
		<path d="M92.2,64c-0.2-0.1-0.5-0.1-0.7,0.2c0,0-0.5,0.8-1.5,2c-1.5,1.7-3.1,3.2-4.8,4.4c-1.8,1.3-4.6,2.9-8.1,3.6
			c-1.6,0.3-3.2,0.4-4.8,0.3c-1.3-0.1-2.7-0.4-4.2-0.8c-0.2-0.1-0.4,0-0.5,0.1c-0.1,0.1-0.2,0.3-0.1,0.5c0.3,1.2,0.4,2.4,0.2,3.7
			c0,0.1,0,0.3,0.1,0.4c0.1,0.1,0.2,0.2,0.3,0.2c1,0.1,2,0.2,2.9,0.2c0.4,0,0.9,0,1.3,0c2-0.1,3.9-0.5,5.8-1.1
			c3.1-1.1,6-2.8,8.6-5.3c1.7-1.6,3.1-3.3,4.5-5.3c0.9-1.4,1.3-2.2,1.3-2.3C92.5,64.4,92.4,64.1,92.2,64z M63.6,70.3
			c-0.2,0.1-0.3,0.2-0.3,0.4c0,0.2-0.6,2.4-1,3.8c0,0.1,0,0.3,0.1,0.4c0,0.1,0.9,1.6-1.6,4.3c-4,4.4-11.1,7-18.9,7
			c-10.8,0-20.6-4.4-20.6-9.3c0-0.7,0.2-1.4,0.6-2.2c0.1-0.2,0.1-0.4,0-0.5c-0.9-1.4-1.4-2.9-1.4-4.5c0-0.2-0.1-0.4-0.3-0.5
			s-0.4,0-0.5,0.1c-2.3,2.2-3.5,4.8-3.5,7.5c0,7.9,11.5,14.3,25.7,14.3c10.4,0,19.4-3.6,23-9.1c0.8-1.2,1.3-2.6,1.5-3.9
			c0.1-0.5,0.1-0.9,0.1-1.3c0-2.8-0.2-4.3-2.4-6.4C63.9,70.3,63.7,70.2,63.6,70.3z M93.3,42c-0.3-0.1-0.5,0-0.6,0.3
			c-0.5,1.2-1.4,2.2-2.6,2.7c-0.3,0.1-0.6,0.2-0.9,0.3l0.3-0.8c0.1-0.2,0-0.3-0.1-0.5l-8.5-7.6c-0.1-0.1-0.2-0.1-0.4-0.1
			c-0.1,0-0.2,0.1-0.3,0.3l-1.3,3.4c-3.9-0.3-7.4,0.5-10.4,2.5c-1.3,0.8-2.4,1.8-3.4,2.9c-0.4-4.1-1.9-8.4-5.3-12.3l2.8-2.2
			c0.1-0.1,0.2-0.2,0.2-0.4c0-0.1-0.1-0.3-0.2-0.3l-9.8-5.8c-0.2-0.1-0.3-0.1-0.5,0l-0.7,0.5c-0.1-1.6,0.5-3.2,1.8-4.3
			c0.2-0.2,0.2-0.5,0.1-0.7c-0.2-0.2-0.5-0.2-0.7-0.1c-1.8,1.4-2.5,3.6-2.1,5.7c-0.5-0.2-1.1-0.4-1.7-0.5c-1.6-0.2-3.1,0.3-4.3,1.3
			c-0.2,0.2-0.2,0.5-0.1,0.7c0.2,0.2,0.5,0.2,0.7,0.1c1.3-1.1,3-1.3,4.6-0.9l-0.7,0.5C49,26.9,49,27,49,27.2L52.6,38
			c0,0.1,0.1,0.2,0.3,0.3c0,0,0.1,0,0.1,0c0.1,0,0.2,0,0.3-0.1l2.6-2.1c4.3,4.7,4.7,10.2,4,14.4c-4.7-4.1-15.3-14.7-16.7-28.1
			l2.6,0.9c0,0,0.1,0,0.1,0c0,0,0,0,0,0c0.2,0,0.4-0.2,0.4-0.4c0,0,0-0.1,0-0.1L46,11.6c0-0.2-0.1-0.3-0.3-0.4l-0.8-0.3
			c1.3-1,3-1.3,4.6-0.8c0.3,0.1,0.5-0.1,0.6-0.3c0.1-0.3-0.1-0.5-0.3-0.6c-2.1-0.7-4.4-0.1-5.9,1.3c-0.4-2.1-1.8-3.9-4-4.6
			c-0.3-0.1-0.5,0.1-0.6,0.3c-0.1,0.3,0.1,0.5,0.3,0.6c1.6,0.5,2.8,1.9,3.2,3.4L42,9.9c-0.2-0.1-0.4,0-0.5,0.1l-7.2,8.8
			c-0.1,0.1-0.1,0.3-0.1,0.4c0,0.1,0.1,0.2,0.3,0.3l4,1.3c0.5,11.9,7.4,21.8,13.1,28.1c-4.5-1.7-9-1.9-11-2v-4
			c0-0.1-0.1-0.3-0.2-0.3c-0.1-0.1-0.3-0.1-0.4,0l-10.7,4c-0.2,0.1-0.3,0.2-0.3,0.4v0.8c-1.3-0.9-2.2-2.4-2.2-4.1
			c0-0.3-0.2-0.5-0.5-0.5s-0.5,0.2-0.5,0.5c0,2.2,1.3,4.2,3.1,5.2c-1.9,1-3.1,3-3.1,5.2c0,0.3,0.2,0.5,0.5,0.5s0.5-0.2,0.5-0.5
			c0-1.7,0.9-3.2,2.2-4.1V51c0,0.2,0.1,0.3,0.3,0.4l10.7,4c0,0,0.1,0,0.1,0c0.1,0,0.2,0,0.2-0.1c0.1-0.1,0.2-0.2,0.2-0.3v-3
			c0.2,0,0.4,0,0.6,0c3.1,0,10.7,0.5,14.4,5.3c4.9,6.3,2.6,13.6-0.6,16.7c-2.6,2.5-7.6,4.1-13.2,4.1c-7.3,0-13.9-3-15.2-7
			c-0.2-0.5-0.3-1-0.3-1.5c0-1.1,0.5-2.3,1.4-3.3c2.6-3.1,8.1-5.1,14.1-5.1c6.6,0,12.9,2.4,15,5.7c0.1,0.2,0.3,0.3,0.5,0.2
			c0.2,0,0.4-0.2,0.4-0.4c0-0.1,0.6-3.2-1.2-6c0,0,0-0.1-0.1-0.1c-3.6-3.3-7.4-4.5-14.6-4.5c-11.5,0-20.5,5.9-20.5,13.5
			c0,1.7,0.5,3.4,1.5,5c3.1,5.1,10.5,8.4,19,8.4c6.6,0,12.6-1.9,16.4-5.3c1.1-0.9,3-3.6,3.1-4c0.7-1.8,2.1-6.5,1.6-11.3
			c0.1-0.2,0.2-0.4,0.2-0.7c0-0.1,1.3-10.9,8-15.2c1.7-1.1,3.6-1.6,5.8-1.7l-1.1,2.7c-0.1,0.1,0,0.3,0,0.4c0.1,0.1,0.2,0.2,0.3,0.2
			l11.4,0.2c0,0,0,0,0,0c0.2,0,0.3-0.1,0.4-0.3l0.3-0.8c0.2,0.3,0.3,0.6,0.5,0.9c0.5,1.2,0.6,2.5,0.1,3.8c-0.1,0.3,0,0.5,0.3,0.6
			c0.1,0,0.1,0,0.2,0c0.2,0,0.4-0.1,0.5-0.3c0.6-1.5,0.5-3.1-0.1-4.5c-0.2-0.5-0.6-1-0.9-1.5c0.6-0.1,1.1-0.2,1.7-0.5
			c1.4-0.6,2.6-1.8,3.1-3.3C93.7,42.3,93.6,42.1,93.3,42z M54.6,65.9c0-0.1-0.1-0.1-0.2-0.1c-0.3-0.1-0.5-0.2-0.8-0.3
			c-3.4-1.5-7.5-2.2-11.9-2.2c-2,0-3.9,0.2-5.8,0.5c-2.5,0.4-4.8,1.1-6.8,2.1c-0.1,0-0.1,0.1-0.2,0.1c-0.9,1.1-1.4,2.3-1.4,3.4
			c0,0.5,0.1,1,0.3,1.5c0.1,0.1,0.2,0.3,0.3,0.3c0,0,0.1,0,0.2,0c0.1,0,0.2,0,0.3-0.1c2-1.4,4.8-2.5,8-3.1c6.7-1.2,14.1,0.1,18.2,3
			c0.1,0.1,0.3,0.1,0.5,0.1c0.2-0.1,0.3-0.2,0.3-0.3c0.1-0.5,0.5-2,0.5-2.3c0-0.1,0-0.3-0.1-0.4l-0.1-0.2
			C55.4,67.1,54.8,66.2,54.6,65.9z"/>
	</g>
</g>
</svg>
