<svg xmlns="http://www.w3.org/2000/svg" xmlns:xlink="http://www.w3.org/1999/xlink" version="1.1" x="0px" y="0px" viewBox="0 0 100 100" enable-background="new 0 0 100 100" xml:space="preserve"><g><path d="M62.528,50.634c4.894,0.713,9.375,1.024,15.046,1.043c2.727,0.01,5.777-0.052,6.779-0.136   c1.604-0.135,1.844-0.126,1.998,0.072c0.096,0.125,0.354,0.955,0.57,1.845c0.518,2.114,0.643,5.042,0.283,6.59   c-0.4,1.72-1.16,3.061-2.486,4.382c-1.572,1.566-2.713,2.134-4.447,2.215c-1.457,0.068-2.456-0.232-3.557-1.072   c-2.115-1.611-2.526-4.511-0.861-6.06c0.742-0.689,1.356-0.909,2.435-0.866c0.599,0.022,1.546,0.998,1.546,1.591   c0,0.831-0.744,1.174-1.342,0.619c-0.218-0.203-0.524-0.299-0.962-0.299c-1.137,0-1.764,0.993-1.336,2.114   c0.218,0.569,1.438,1.091,2.546,1.088c2.033-0.006,3.424-1.438,3.42-3.522c-0.004-2.333-1.83-3.984-4.367-3.951   c-2.617,0.036-4.654,1.793-5.203,4.49c-0.677,3.33,1.369,6.64,4.868,7.875c1.185,0.418,3.295,0.482,4.606,0.142   c1.458-0.379,3.014-1.269,4.287-2.451l0.466-0.433l-0.375,1.224c-0.813,2.654-2.056,5.126-3.595,7.159   c-1.209,1.597-3.553,3.886-5.347,5.221c-2.878,2.144-6.532,3.214-10.293,3.018c-3.267-0.172-4.646-0.67-6.283-2.271   c-1.655-1.618-2.32-3.255-2.19-5.398c0.174-2.857,1.824-5.006,4.348-5.656c0.831-0.215,1.074-0.224,1.779-0.065   c1.502,0.337,2.821,1.519,3.182,2.85c0.241,0.89-0.026,1.77-0.748,2.459c-0.479,0.46-0.67,0.544-1.224,0.544   c-0.875,0-1.329-0.405-1.19-1.064c0.053-0.258,0.133-0.771,0.177-1.151c0.069-0.598,0.032-0.733-0.298-1.063   c-0.516-0.515-1.502-0.523-2.086-0.019c-0.386,0.335-0.408,0.419-0.408,1.57c0,0.904,0.07,1.36,0.275,1.771   c0.619,1.245,1.811,2.002,3.326,2.115c0.802,0.06,1.092,0.012,1.734-0.289c1.05-0.489,1.592-0.979,2.106-1.898   c0.401-0.722,0.431-0.875,0.431-2.305c0-1.399-0.035-1.597-0.406-2.303c-0.789-1.499-2.043-2.563-3.676-3.119l-0.729-0.249   l-0.112-1.21c-0.245-2.639-1.144-5.126-2.686-7.436c-0.385-0.577-1.488-1.837-2.45-2.799c-1.866-1.866-3.001-3.287-3.985-4.986   c-0.338-0.583-0.607-1.076-0.607-1.108s0.896,0.121,2.005,0.343C58.59,50.011,60.866,50.392,62.528,50.634 M48.926,36.697   c1.53,0.471,3.207,1.122,3.207,1.248c0,0.062-0.059,0.16-0.146,0.248c-0.276,0.277-5.54,10.747-5.54,11.021   c0,0.151,0.23,1.195,0.51,2.304s0.508,2.112,0.503,2.216c-0.003,0.104-1.122,1.473-2.479,3.033   c-1.356,1.56-2.468,2.908-2.464,2.988c0.005,0.081,0.781,0.634,1.729,1.231l1.72,1.087l-1.093,2.857l0.787,0.547   c0.438,0.304,0.787,0.602,0.787,0.671c0,0.068-0.234,0.511-0.525,0.991c-0.291,0.481-0.485,0.906-0.438,0.955   c0.049,0.049,0.432,0.225,0.854,0.394l0.766,0.307l0.146,3.892L49.566,74l3.564-0.459c1.955-0.252,3.592-0.433,3.623-0.401   c0.283,0.291-1.603,1.808-3.381,2.719c-3.172,1.625-6.343,1.994-9.711,1.128c-3.236-0.832-5.213-2.454-5.893-4.838   c-0.199-0.697-0.227-1.181-0.151-2.551c0.116-2.104,0.212-2.494,1.28-5.176c1.205-3.033,1.57-4.538,1.57-6.474   c0-2.805-0.635-4.257-3.203-7.318l-0.441-0.525l1.546-1.136c4.723-3.471,7.541-7.35,9.026-12.423   C47.473,36.289,47.656,36.308,48.926,36.697z M43.283,35.426c0.904,0.127,1.691,0.285,1.764,0.354   c0.153,0.144-0.476,1.991-1.113,3.274c-1.51,3.036-4.471,6.248-7.983,8.662l-1.079,0.741l-0.656-0.612l0.686-0.548   c1.042-0.834,2.67-2.587,3.379-3.637c1.42-2.104,2.473-4.985,2.708-7.421C41.105,35.027,40.922,35.092,43.283,35.426z    M38.646,36.006c-0.217,2.042-0.986,4.14-2.186,5.964c-0.996,1.516-1.799,2.404-3.121,3.457c-1.385,1.103-1.623,0.96-0.709-0.426   c1.873-2.843,3.027-6.191,3.027-8.791c0-1.158-0.058-1.121,1.794-1.147l1.298-0.019L38.646,36.006z M89.164,33.513   c0,0.339-0.736,2.566-1.061,3.208c-0.495,0.977-1.156,1.699-1.824,1.996c-0.587,0.26-0.679,0.264-1.408,0.052   c-0.422-0.122-0.974-0.406-1.203-0.621c-0.524-0.49-0.99-1.644-0.863-2.142c0.251-0.995,1.869-1.94,4.145-2.419   C88.553,33.249,89.164,33.229,89.164,33.513z M24.52,31.459c0.943,0.432,2.459,1.836,3.227,2.987c0.52,0.78,0.537,0.846,0.596,2.42   c0.076,2.042-0.152,2.939-0.992,3.893c-1.756,1.994-5.6,2.383-11.229,1.135c-1.385-0.308-4.291-1.119-4.621-1.291   c-0.115-0.061,0.279-0.732,1.168-1.986c1.776-2.508,4.928-5.694,6.516-6.591C21.21,30.882,22.875,30.705,24.52,31.459z    M71.99,31.228c2.945,0.788,5.207,2.151,7.639,4.604c2.932,2.959,5.342,7.246,6.59,11.723l0.293,1.049h-0.394   c-0.706,0-6.021-0.561-8.908-0.938c-1.561-0.205-3.14-0.41-3.499-0.454c-0.361-0.044-2.275-0.338-4.258-0.654   c-7.931-1.265-16.211-3.098-16.365-3.624c-0.205-0.697-0.688-3.427-0.751-4.243l-0.072-0.947l1.502-1.115   c4.198-3.117,7.925-4.917,11.561-5.584C67.02,30.732,70.501,30.829,71.99,31.228z M83.865,25.902   c-0.195,2.493-1.076,4.793-2.18,5.691c-0.724,0.589-1.75,0.678-2.887,0.249c-0.699-0.264-0.916-0.437-1.374-1.101   c-0.753-1.093-0.841-1.899-0.289-2.696c0.417-0.604,1.896-1.678,2.917-2.117c0.787-0.34,3.449-1.224,3.703-1.23   C83.924,24.693,83.943,24.911,83.865,25.902z M32.48,20.312c1.832,0.698,2.845,2.281,2.992,4.672   c0.086,1.4-0.045,1.779-1.096,3.179c-0.734,0.977-1.533,1.567-2.422,1.79c-2.25,0.562-6.016-2.169-9.66-7.009   c-0.428-0.569-0.779-1.095-0.779-1.167c0-0.248,3.588-1.312,5.687-1.688C28.82,19.799,31.424,19.908,32.48,20.312z M76.465,18.628   c0.878,3.338,0.713,5.528-0.508,6.75c-0.695,0.695-1.444,0.959-2.698,0.952c-0.714-0.004-0.947-0.081-1.662-0.553   c-1.685-1.109-1.97-2.354-0.937-4.089c0.619-1.041,2.613-3.089,4.07-4.181l1.094-0.819L76,17.104   C76.097,17.334,76.305,18.015,76.465,18.628z M37.889,12.975c3.82,0.521,6.625,1.9,7.545,3.714c0.6,1.18,0.467,2.843-0.354,4.461   c-0.574,1.13-2.599,2.365-3.882,2.368c-1.974,0.005-3.995-2.47-5.457-6.684c-0.542-1.56-1.104-3.602-1.104-4.009   C34.637,12.567,35.018,12.585,37.889,12.975z M63.666,11.186c5.044,4.335,5.823,7.446,2.435,9.714   c-0.802,0.536-0.955,0.585-1.83,0.585c-0.524,0-1.224-0.08-1.553-0.179c-0.813-0.243-1.587-1.06-1.847-1.949   c-0.414-1.415-0.162-4.068,0.628-6.619c0.451-1.458,0.851-2.479,0.972-2.479C62.535,10.259,63.068,10.673,63.666,11.186z    M49.889,9.174c3.79,1.517,6.331,3.612,6.775,5.59c0.332,1.474-0.93,3.803-2.432,4.49c-1.545,0.708-2.947,0.632-3.878-0.211   c-1.347-1.22-1.982-3.448-2.116-7.429c-0.082-2.435-0.043-2.959,0.221-2.959C48.531,8.655,49.174,8.889,49.889,9.174z M46.238,5.71   c-0.188,0.628-0.396,4.082-0.352,5.817l0.051,1.91l-0.628-0.433c-2.333-1.61-6.05-2.518-11.065-2.699l-2.508-0.091l0.082,0.568   c0.266,1.866,1.234,5.841,1.734,7.115c0.08,0.204,0.055,0.256-0.096,0.197c-0.111-0.044-0.729-0.196-1.355-0.335   c-2.356-0.52-6.139-0.072-9.93,1.173c-2.084,0.686-4.301,1.557-4.301,1.691c0,0.195,2.043,3.207,3.036,4.476   c0.525,0.671,1.463,1.762,2.074,2.413l1.116,1.188l-1.619,0.007c-1.443,0.007-1.747,0.056-2.814,0.459   c-2.937,1.11-5.819,3.675-8.836,7.859c-1.472,2.04-3.04,4.611-2.9,4.752c0.228,0.228,4.316,1.59,6.255,2.084   c3.164,0.807,4.772,1.02,7.625,1.014c2.012-0.005,2.752-0.062,3.499-0.269c3.73-1.028,5.395-3.237,5.395-7.159v-1.633l2.668-0.437   l-0.082,1.253c-0.097,1.476-0.617,3.237-1.448,4.898c-0.715,1.43-1.81,3.104-2.071,3.166c-0.218,0.053-12.904,10.076-12.84,10.146   c0.021,0.024,2.664-0.197,5.857-0.49c7.887-0.724,9.485-0.647,10.701,0.511c1.496,1.427,1.051,3.493-1.775,8.246   c-2.387,4.01-3.302,6.043-4.064,9.024c-1.881,7.349,0.113,13.947,5.402,17.873c3.013,2.237,7.553,3.807,12.67,4.38   c2.224,0.248,6.852,0.212,9.111-0.073c6.561-0.826,13.005-3.083,17.641-6.178c2.377-1.587,3.879-2.817,6.211-5.087   c2.524-2.457,3.389-3.479,5.862-6.935c5.207-7.273,7.482-14.55,7.205-23.05c-0.144-4.374-0.874-8.095-2.336-11.868l-0.524-1.355   l0.525-0.686c1.018-1.326,1.828-3.587,2.378-6.634c0.159-0.89,0.289-1.636,0.289-1.677c0-0.039-0.904-0.03-1.997,0.022   c-1.765,0.083-4.297,0.466-5.045,0.762c-0.311,0.122-0.318,0.032-0.047-0.492c0.731-1.412,1.229-4.039,1.355-7.158l0.092-2.231   l-0.57,0.1c-1.574,0.273-4.027,0.879-5.102,1.258c-0.656,0.231-1.252,0.422-1.32,0.422c-0.067,0-0.101-0.365-0.074-0.803   c0.066-1.053-0.197-3.003-0.645-4.781c-0.461-1.838-1.529-4.768-1.737-4.768c-0.468,0-4.721,3.062-5.753,4.141   c-0.279,0.291-0.553,0.524-0.618,0.524s-0.117-0.247-0.117-0.554c0-0.308-0.104-0.904-0.233-1.341   c-0.817-2.75-3.032-5.271-7.406-8.434L61.42,6.468l-0.631,1.386c-0.618,1.355-1.479,3.735-1.811,5.016l-0.168,0.641l-0.281-0.627   c-1.195-2.67-4.559-4.922-10.143-6.791c-1.064-0.356-1.957-0.645-1.998-0.645S46.281,5.564,46.238,5.71z"></path><path d="M50.85,12.264c-0.057,0.141-0.102,1.071-0.102,2.077c0,2.158,0.218,2.803,1.064,3.157c1.412,0.591,2.945-0.445,2.945-1.99   c0-0.759-0.27-1.277-1.006-1.939c-0.496-0.445-2.434-1.56-2.713-1.56C50.99,12.009,50.908,12.118,50.85,12.264"></path><path d="M63.306,15.114c-0.483,1.166-0.724,2.136-0.735,2.959c-0.021,1.458,0.436,1.954,1.795,1.954   c0.584,0,0.792-0.08,1.254-0.479c1.137-0.983,0.758-2.54-1.006-4.137c-0.467-0.422-0.917-0.778-0.984-0.778   S63.414,14.852,63.306,15.114"></path><path d="M38.385,16.776c0.484,2.565,1.539,4.388,2.668,4.609c0.627,0.124,1.492-0.117,2.027-0.566   c0.889-0.744,1.141-2.513,0.485-3.402c-0.601-0.815-2.309-1.457-4.511-1.696l-0.889-0.097L38.385,16.776"></path><path d="M73.93,21.06c-2.143,1.347-2.785,2.7-1.764,3.721c0.482,0.483,0.771,0.568,1.69,0.499c1.028-0.077,1.534-0.995,1.409-2.556   c-0.09-1.107-0.329-2.113-0.506-2.113C74.696,20.61,74.322,20.812,73.93,21.06"></path><path d="M29.244,21.924c-1.299,0.198-3.672,1.006-3.554,1.208c0.312,0.54,2.003,2.6,2.474,3.014   c1.283,1.128,2.541,1.639,3.471,1.409c0.479-0.119,1.355-0.895,1.652-1.463c0.357-0.685,0.297-2.113-0.125-2.887   C32.584,22.143,31.066,21.646,29.244,21.924"></path><path d="M80.198,27.968c-1.297,0.439-1.892,1.043-1.768,1.799c0.124,0.758,0.466,1.169,1.112,1.342   c1.383,0.368,2.141-0.512,2.549-2.96c0.09-0.54,0.09-0.54-0.392-0.532C81.432,27.619,80.768,27.776,80.198,27.968"></path><path d="M21.355,33.909c-0.594,0.295-1.276,0.814-1.878,1.426c-1.002,1.021-2.74,3.444-2.583,3.602   c0.183,0.182,2.245,0.787,3.455,1.014c1.809,0.337,4.1,0.235,4.899-0.219c0.935-0.531,1.298-1.29,1.298-2.72   c0-1.326-0.242-1.873-1.196-2.709C24.188,33.284,22.873,33.154,21.355,33.909"></path><path d="M85.811,35.201c-1.268,0.246-1.801,0.971-1.408,1.913c0.285,0.686,1.125,1.003,1.803,0.682   c0.447-0.212,1.137-1.411,1.305-2.271c0.096-0.481,0.096-0.481-0.473-0.467C86.721,35.066,86.176,35.13,85.811,35.201"></path></g></svg>