<svg xmlns="http://www.w3.org/2000/svg" xmlns:xlink="http://www.w3.org/1999/xlink" version="1.1" x="0px" y="0px" viewBox="0 0 100 100" enable-background="new 0 0 100 100" xml:space="preserve"><path d="M48.201,35.062c4.712,0.972,6.915,1.624,9.716,2.88c6.159,2.766,12.538,7.77,17.867,14.017  c2.015,2.363,3.777,6.983,4.2,11.021c0.62,5.896-1.84,12.19-6.958,17.807c-1.246,1.367-3.455,3.42-3.565,3.313  c-0.034-0.032-0.136-0.919-0.229-1.977c-0.14-1.613-0.722-5.057-1.024-6.049c-0.06-0.2-0.379,0.246-1.153,1.612  c-3.504,6.186-7.174,9.991-11.885,12.324c-0.753,0.373-1.567,0.729-1.812,0.793c-0.399,0.103-0.432,0.084-0.329-0.178  c0.41-1.034,0.72-2.119,0.911-3.192c0.246-1.382,0.456-3.622,0.339-3.622c-0.042,0-0.906,0.542-1.935,1.216  c-3.775,2.471-6.854,3.736-10.499,4.313c-1.513,0.241-4.697,0.201-6.278-0.077c-2.764-0.487-5.996-1.781-8.474-3.396l-0.92-0.599  l2.241-0.178c4.974-0.395,7.691-1.816,9.193-4.811c0.7-1.399,0.843-2.289,0.764-4.759c-0.039-1.223-0.064-3.716-0.053-5.527  c0.021-3.684,0.306-5.59,1.125-7.552c0.481-1.152,1.516-2.676,2.372-3.495l0.569-0.542l1.028,0.532  c2.24,1.163,4.504,3.238,5.296,4.856c0.376,0.768,0.322,0.759,2.518,0.432c3.929-0.582,7.613-2.257,9.689-4.408l0.518-0.538  l-0.192-1.167c-0.122-0.747-0.161-2.002-0.107-3.506c0.069-1.919,0.157-2.585,0.484-3.692c0.463-1.565,1.069-2.828,1.841-3.837  c0.306-0.398,0.553-0.742,0.553-0.768s-0.399,0.004-0.875,0.064c-2.411,0.305-4.331,0.047-4.849-0.648l-0.309-0.413l0.399-0.707  c0.217-0.383,0.371-0.707,0.337-0.707s-0.537,0.112-1.105,0.243c-1.612,0.375-3,0.365-3.531-0.024  c-0.534-0.393-0.636-1.062-0.271-1.769c0.223-0.431,0.227-0.479,0.026-0.402c-1.919,0.74-3.245,1.077-4.513,1.15l-1.413,0.082  l-0.47-0.476c-0.503-0.511-0.62-1.291-0.312-2.09c0.082-0.215,0.122-0.397,0.083-0.397c-0.038,0-0.391,0.277-0.774,0.608  c-0.829,0.713-1.822,1.302-2.441,1.446c-1.348,0.314-2.631-2.347-2.093-4.343C42.567,35.464,44.93,34.387,48.201,35.062   M56.871,21.765c0.475,1.272,2.214,4.589,3.179,6.062c1.459,2.226,2.7,3.732,4.514,5.477c2.015,1.938,3.5,2.993,5.94,4.225  l1.827,0.922l0.528,1.304c0.949,2.349,1.909,5.271,1.775,5.404c-0.068,0.068-0.691-0.327-1.397-0.886  c-5.926-4.688-11.231-8.031-16.256-10.247c-2.103-0.928-5.064-2.008-6.585-2.404c-0.369-0.096-0.66-0.246-0.66-0.34  c0-0.199,6.636-10.249,6.769-10.251C56.555,21.028,56.723,21.366,56.871,21.765z M39.851,5.688  c-6.479,0.944-11.883,5.3-14.209,11.455l-0.557,1.474l-1.858-0.035c-2.164-0.042-3.355,0.143-5.004,0.782  c-2.333,0.901-4.777,2.943-5.98,4.994c-3.36,5.726-1.869,12.889,3.463,16.637c2.083,1.466,4.313,2.137,7.093,2.137  c3.039,0,5.428-0.782,6.938-2.273c1.671-1.649,2.412-3.59,2.316-6.077c-0.052-1.35-0.123-1.686-0.55-2.594  c-0.562-1.198-1.662-2.354-2.749-2.892c-0.62-0.307-0.967-0.363-2.195-0.363c-1.274,0-1.555,0.051-2.225,0.407  c-1.359,0.723-1.919,1.635-1.919,3.124c0,1.027,0.299,1.671,0.967,2.078c1.035,0.633,2.171,0.162,2.539-1.051  c0.265-0.874,1.004-1.464,1.698-1.353c1.235,0.201,1.646,1.245,0.999,2.534c-0.914,1.815-2.303,2.691-4.283,2.698  c-1.075,0.004-1.332-0.054-2.058-0.455c-1.735-0.96-2.554-2.58-2.444-4.837c0.08-1.627,0.547-2.708,1.646-3.807  c1.462-1.462,3.301-2.111,5.665-1.999c1.258,0.059,1.524,0.128,2.685,0.706c2.269,1.128,4.008,3.319,4.651,5.868  c0.369,1.456,0.237,4.159-0.275,5.647l-0.385,1.121l0.905,0.46c1.192,0.604,3.777,1.459,5.082,1.681l1.043,0.177l-0.261,0.408  c-0.144,0.224-0.765,1.151-1.389,2.072c-0.625,0.921-1.129,1.721-1.129,1.788c0,0.068,0.483,0.698,1.075,1.405  c0.592,0.705,1.075,1.326,1.075,1.38c0,0.057-1.132,1.645-2.518,3.531l-2.517,3.431l0.49,0.137c2.425,0.669,3.704,1.044,3.869,1.136  c0.144,0.079-0.017,0.386-0.584,1.106c-1.034,1.32-2.038,3.424-2.488,5.219c-0.602,2.4-0.763,4.668-0.626,8.751  c0.066,1.979,0.108,3.987,0.092,4.45c-0.039,1.197-0.402,2.333-0.989,3.102c-2.256,2.951-7.532,3.529-14.439,1.579  c-1.335-0.377-2.468-0.688-2.502-0.688s0.584,0.736,1.362,1.627c2.614,2.986,4.793,4.804,7.801,6.503  c0.63,0.355,1.188,0.705,1.23,0.771c0.125,0.197,2.178,1.182,4.174,2.004c5.088,2.095,10.178,3.157,15.933,3.321  c7.952,0.23,14.98-1.326,21.951-4.866c3.591-1.823,5.76-3.35,9.118-6.421c5.835-5.34,9.645-11.767,11.019-18.597  c0.3-1.492,0.356-2.242,0.356-4.837c0-2.854-0.235-5.336-0.522-5.518c-0.06-0.039-0.652,0.11-1.327,0.331  c-0.977,0.318-1.528,0.399-2.756,0.403c-2.348,0.008-3.935-0.519-6.001-1.991c-1.131-0.807-1.586-1.376-2.291-2.864  c-1.016-2.149-1.055-4.377-0.11-6.385c0.533-1.134,2.002-2.597,3.184-3.174c0.825-0.403,1.075-0.45,2.379-0.45  c1.381,0,1.51,0.028,2.456,0.55c1.811,0.999,2.818,2.906,2.458,4.655c-0.4,1.933-2.083,3.44-3.87,3.463  c-0.66,0.008-2.219-0.373-2.502-0.611c-0.322-0.271-0.571-1.057-0.468-1.471c0.166-0.667,0.76-1.137,1.435-1.137  c0.322,0,0.717,0.101,0.883,0.224c0.167,0.125,0.576,0.225,0.928,0.229c0.783,0.007,1.147-0.359,1.244-1.25  c0.142-1.284-1.028-2.353-2.563-2.338c-1.474,0.013-2.792,0.956-3.5,2.506c-0.516,1.131-0.437,2.918,0.185,4.162  c0.831,1.662,2.578,2.964,4.544,3.388c1.059,0.227,3.097,0.099,3.991-0.251c3.25-1.271,5.793-4.856,6.08-8.572  c0.395-5.11-2.293-10.746-6.463-13.553c-1.212-0.815-2.888-1.654-2.949-1.475c-0.23,0.684-1.411,2.275-2.363,3.184  c-1.293,1.236-2.594,2.031-4.205,2.567c-1.428,0.477-4.167,0.512-5.45,0.072c-3.668-1.259-5.833-4.028-5.833-7.466  c0-3.606,2.52-6.446,5.756-6.483c1.428-0.018,2.452,0.399,3.469,1.41c1.095,1.088,1.437,2.019,1.331,3.614  c-0.09,1.336-0.488,2.113-1.639,3.192c-0.921,0.865-1.554,0.961-2.287,0.342c-0.906-0.765-0.721-1.905,0.415-2.545  c0.661-0.374,0.937-0.835,0.937-1.572c0-1.949-2.881-2.513-4.388-0.86c-0.732,0.806-0.908,1.367-0.908,2.902  c0,1.29,0.048,1.548,0.412,2.242c0.851,1.612,2.75,2.785,4.761,2.935c3.595,0.269,6.879-2.077,7.981-5.699  c0.382-1.256,0.315-2.532-0.245-4.742c-1.375-5.412-5.48-9.486-11.113-11.034c-0.982-0.27-1.612-0.327-3.715-0.333  c-2.242-0.007-2.704,0.039-4.022,0.397c-1.78,0.483-3.835,1.455-5.111,2.418l-0.937,0.708l-0.533-0.783  c-0.79-1.159-3.121-3.531-4.44-4.518C49.548,6.285,44.486,5.013,39.851,5.688z"></path><path d="M25.997,46.143c-3.629,1.052-6.628,1.939-6.662,1.974c-0.033,0.034,0.724,0.799,1.688,1.707  c0.964,0.907,1.699,1.69,1.64,1.747c-0.059,0.054-2.37,0.898-5.127,1.873c-2.758,0.976-5.069,1.817-5.128,1.869  c-0.059,0.051,0.744,0.91,1.788,1.914l1.895,1.82l-1.921,1.252c-1.055,0.687-3.562,2.305-5.556,3.588  C6.617,65.169,4.988,66.235,5,66.249c0.067,0.078,18.693-4.579,18.693-4.672c0-0.052-0.606-0.949-1.346-1.995  c-0.739-1.044-1.297-1.946-1.238-2c0.059-0.056,2.182-0.866,4.726-1.802c2.543-0.937,4.638-1.72,4.662-1.743  c0.03-0.031-1.773-2.047-3.486-3.893l-0.373-0.401l3.146-2.718c1.727-1.492,3.146-2.743,3.146-2.771  C32.931,44.141,32.462,44.27,25.997,46.143"></path><path d="M30.235,60.321c-2.804,0.811-5.109,1.493-5.139,1.523c-0.03,0.03,0.54,0.616,1.28,1.316  c0.939,0.893,1.272,1.299,1.131,1.381c-0.11,0.063-1.895,0.72-3.975,1.463c-2.081,0.743-3.809,1.379-3.853,1.418  c-0.042,0.037,0.585,0.689,1.387,1.44c1.418,1.328,1.455,1.379,1.155,1.609c-0.168,0.131-2.057,1.365-4.183,2.735  c-2.126,1.37-3.85,2.521-3.82,2.549c0.029,0.03,3.25-0.733,7.148-1.694c4.699-1.157,7.075-1.808,7.034-1.925  c-0.034-0.098-0.492-0.779-1.01-1.503s-0.912-1.384-0.871-1.456c0.042-0.071,1.664-0.709,3.59-1.41  c1.926-0.7,3.54-1.299,3.574-1.325c0.034-0.025-0.608-0.778-1.44-1.688c-1.227-1.339-1.464-1.676-1.294-1.833  c0.114-0.105,1.202-1.047,2.404-2.08c1.201-1.032,2.195-1.915,2.195-1.948C35.55,58.789,35.427,58.822,30.235,60.321"></path></svg>