<?xml version="1.0" encoding="utf-8"?>
<!-- Generator: Adobe Illustrator 22.1.0, SVG Export Plug-In . SVG Version: 6.00 Build 0)  -->
<svg version="1.1" id="Layer_1" xmlns="http://www.w3.org/2000/svg" xmlns:xlink="http://www.w3.org/1999/xlink" x="0px" y="0px"
	 viewBox="0 0 100 100" style="enable-background:new 0 0 100 100;" xml:space="preserve">
<path d="M64.7,44.4l-5.8-19.1c-0.7-2.1-2.6-6-7.4-6H40.1c-4.8,0-6.7,3.9-7.3,6L27,44.4c-1.2,4.1,4.1,5.7,5.3,1.8l5.2-17.6h1.4
	l-0.9,9.5c2,1.7,4.7,2.6,7.5,2.6c3,0,5.8-1.1,7.8-2.9l-0.8-9.2h1.5l5.2,17.5C60.6,50.2,65.8,48.5,64.7,44.4z"/>
<path d="M70,21.5c-3.1,2.9-6.3-0.1-9.3-2.3c1.7-0.5,3.2-1.2,4.5-2.3c0.1-0.1,0.2-0.2,0.3-0.3c0.4-0.3,0.7-0.6,1.1-1
	c1.5-1.5-0.8-3.8-2.3-2.3c-2.4,2.5-4.9,0.5-7.3-1.5c2.9-0.3,6-1.1,8.2-3c0.1-0.1,0.2-0.2,0.3-0.3c0.4-0.3,0.7-0.6,1.1-1
	c1.5-1.5-0.8-3.8-2.3-2.3c-3.7,3.8-7.5-2.8-10.9-4.1c-2.9-1.1-6.6-1.5-8.1,1c-1.5-0.6-2.9-0.6-4.5-0.5c-3.4,0.3-6.1,3.6-6.7,6.2
	c-0.7,3.2-0.2,5.6,1.9,7.7c-0.2,0.5-0.3,1-0.3,1.6c0.1,0.7,0.2,1.4,0.3,2.1c1.1-0.5,2.4-0.9,4-0.9h0.6c-1.8-1.5-3-3.8-3-6.3
	c0-4.5,3.7-8.2,8.2-8.2c4.5,0,8.2,3.7,8.2,8.2c0,2.6-1.2,4.8-3,6.3h0.6c4.2,0,7.6,2.7,9.1,7.3l0.9,3c3.4-0.2,7-1.2,9.5-3.1
	c0.1-0.1,0.2-0.2,0.3-0.3c0.4-0.3,0.9-0.6,1.3-1C74.3,22.3,71.7,19.9,70,21.5z"/>
<circle cx="45.8" cy="11.7" r="6.8"/>
<path d="M50.5,88.6C63.8,63,58.6,47,54,39.5c0,0-0.1,0.1-0.1,0.1c-2.2,1.6-5.1,2.6-8.3,2.6c-3,0-5.8-0.9-7.9-2.3c0,0,0,0-0.1,0
	c-12.1,20,3.2,48.8,3.2,48.8l-6.7,10.2C34,99,34,99.1,34,99.2c0,0.4,0.5,0.8,1.1,0.8c0.2,0,0.4-0.1,0.6-0.1l10-6l10.1,6
	c0.2,0.1,0.3,0.1,0.5,0.1c0.6,0,1.1-0.4,1.1-0.8c0-0.1,0-0.2-0.1-0.3L50.5,88.6z"/>
</svg>
