<?xml version="1.0" encoding="utf-8"?>
<!-- Generator: Adobe Illustrator 22.1.0, SVG Export Plug-In . SVG Version: 6.00 Build 0)  -->
<svg version="1.1" id="Layer_1" xmlns="http://www.w3.org/2000/svg" xmlns:xlink="http://www.w3.org/1999/xlink" x="0px" y="0px"
	 viewBox="0 0 100 100" style="enable-background:new 0 0 100 100;" xml:space="preserve">
<g>
	<path d="M50.7,19.9c0.3-0.9,2.1-4.3,2.1-4.3s-8.1,1.7-9-3.3S47.6,2,47.6,2s-7.9,3.4-8.2,9.9C39.2,20,50.7,19.9,50.7,19.9z"/>
	<path d="M47.4,21.8c-0.9,0-5.1,2.1-4.8,3.2c0.3,1,4.3,1.1,5.6,1.9s3-2.3,3-2.3s-0.3-2.3-0.5-3.3C50.7,21.3,48.3,21.8,47.4,21.8z"/>
	<ellipse transform="matrix(0.7703 -0.6377 0.6377 0.7703 -7.4393 44.3274)" cx="57.8" cy="32.5" rx="0.9" ry="0.5"/>
	<ellipse transform="matrix(0.8887 -0.4585 0.4585 0.8887 -8.7631 28.5411)" cx="54.4" cy="32.3" rx="0.4" ry="0.9"/>
	<path d="M64.7,15.4c0,0,0.5,3.2,1.8,4.2c0,0,10.1,0.6,12.7-2c3.9-3.8,3.6-6-0.5-11.9c-0.6-0.8-2.4-2.4-3.1-3c0,0-0.9-0.7-0.9-0.6
		C79.3,9.8,77.4,13,77.4,13C75.2,16,72,14.3,64.7,15.4z"/>
	<path d="M53,29.7c-0.2,1.1-1.4,3.7-0.9,4.6c0.4,0.9,1.8,3.1,7.9,1.5c0.8-0.3,1.7-1,2.3-2.5c0,0,1.9-3.4,2.7-4.9
		c0.1-0.3,0.1-0.6,0.1-0.7c0.1-0.4,0.5-1.7,0.5-1.7s1.1-0.3,1.7,0s3.1,1.7,5.3-0.8c0.7-0.7,1.2-1.2,1.6-1.5c0.5-0.4,0.4-1.2-0.2-1.4
		c-1-0.5-2.4-1.1-4-1.4c-1.7,0.4-2.9,0.6-3.3,0.6c-0.1,0-0.2,0-0.3,0c-0.4,0-0.8-0.1-1.1-0.4c-1.5-1.2-2.2-4-2.4-5.1
		c-0.7-0.1-7-0.6-8.3-0.1c0,0-2.6,4.1-2.6,6C52,24.5,53.2,28.6,53,29.7z M63,21.9c0,0-0.7,2.1-2.3,0.7C60.7,22.6,61.4,20.6,63,21.9z
		 M56.1,31.4c1.5,0,2.4-0.7,2.9,0.1c0.4,0.9-0.3,1.5-0.5,1.8c0,0.1-0.1,0.1-0.1,0.2c-0.1,0.3-0.4,0.5-0.8,0.6
		c-0.6,0.1-1.5,0.2-3-0.1c-0.4-0.1-0.7-0.3-0.8-0.7c-0.2-0.5-0.4-1.4-0.3-1.9C53.7,30.6,54.7,31.4,56.1,31.4z M54.4,22.6
		c-1.1,1.4-1.6-0.7-1.6-0.7C53.9,20.6,54.4,22.6,54.4,22.6z"/>
	<path d="M20.4,24l2.9-1.5l-1.4-2.8c-0.3-0.5-1-0.8-1.5-0.5l-0.9,0.5c-0.5,0.3-0.8,1-0.5,1.5L20.4,24z"/>
	<path d="M22.1,34.9c-0.1-0.5,0-1,0.1-1.5c0.3-0.8,0.9-1.5,1.7-1.9l3.3-1.7c1.3-0.6,2.8-0.4,3.8,0.6c1.8,1.8,1.9,4.3,1.7,5.5
		c0,0.2,0.3,0.3,0.4,0.2c0.6-0.7,1.5-1.9,2.1-3.7c0.8-2.4,1-5.8-1-10l0,0c0-0.1-0.1-0.2-0.1-0.2c0-0.1-0.1-0.2-0.1-0.2l0,0
		c-3.9-7.2-9.7-7.4-11.7-7.2c-0.1,0-0.2,0.1-0.2,0.2c0,0.1,0,0.2,0.1,0.3c1,0.6,3,2.1,3.4,4.6c0.1,0.5,0,1-0.1,1.5
		c-0.3,0.8-0.9,1.5-1.7,1.9L20.5,25c-1.3,0.6-2.8,0.4-3.8-0.6c-1.8-1.8-1.9-4.3-1.7-5.5c0-0.2-0.3-0.3-0.4-0.2
		c-0.6,0.7-1.5,1.9-2.1,3.7c-0.8,2.4-1,5.8,1,10l0,0c0,0.1,0.1,0.2,0.1,0.2c0,0.1,0.1,0.2,0.1,0.2l0,0c3.9,7.2,9.7,7.4,11.7,7.2
		c0.1,0,0.2-0.1,0.2-0.2c0-0.1,0-0.2-0.1-0.3C24.5,38.9,22.5,37.4,22.1,34.9z M23.4,26.4c0.5-0.3,1.1-0.1,1.4,0.4s0.1,1.1-0.4,1.4
		s-1.1,0.1-1.4-0.4C22.7,27.2,22.9,26.6,23.4,26.4z"/>
	<path d="M39.6,59.3l0.9-0.5c0.5-0.3,0.8-1,0.5-1.5l-0.5-1.1l0,0l-2.9,1.5l0.5,1.1C38.4,59.4,39,59.6,39.6,59.3z"/>
	<path d="M48.5,81c4.5-2.1,4.9-3.4,4.9-3.4c-0.7-3.2-0.8-7.7-1.4-11.1c-0.7-3.3-1.5-5.2-1.5-5.2s-6.3,2.6-9.8,9.5
		c-0.8,1.5-0.8,3-1.1,4.3s-2,2.3-1.3,3.8c1.2,2.8,4.3,3.5,7,5.2s3,3.2,3.2,3.7s-5.5,7-5.3,8s5,0.7,7.2,0.3c2.2-0.3,1.3-4.3,1.3-4.3
		l1.5-0.7v-1.7c0-2.2,3.5-7,3.3-8.4S55,78.3,55,78.3C51.8,81.3,48.5,81,48.5,81z"/>
	<path d="M83.1,85.7c-0.4-1.3,0.8-4.9-2.5-9.9c0,0-0.6-1.8-0.5-3.3c0,0,1,3.3,1.8,3.8s1.1,1.3,1.1,1.3s0.8-6.4-0.8-9L82,68.5
		c-0.9,0.9-1.8,1.3-2.2,1.5c-1,0.3-3-1.1-3-1.1h-0.3c-0.6-0.1-0.9-1.1-0.9-1.1c-0.6,0-1.5-0.5-1.8-1.3s1.8-2.5,2-2.6
		s-0.3-0.9-0.5-1.1c-0.2-0.2-0.8,1.6-1.3,1.2c-0.3-0.2-0.8-0.6-1.1-1.2c-0.2,0.1-1.4,0.8-1.9,1.1c-0.6,0.3-3.2,1.4-3.2,1.4v0.2
		c0.1,0.2,1.2,5.5,1.5,7s0.4,2.6-0.5,3.7s-2.3,0.6-2.3,0.6l0.4,0.6c0,0,2.4,3,3.5,3.8s6.9,4.4,8.4,5.6c1.5,1.3,0.6,5.1,0.6,5.1
		s-2.3,4.4-2.3,5.5c0,0,1.6,1.3,5.4,0.5s2.9-1.9,2.9-4.5C85.2,90.6,83.4,87,83.1,85.7z"/>
	<path d="M67.3,75.7L67.3,75.7c1-0.3,1-1.9,1-2.1l-1.6-7.9c-0.3-1.5-0.4-2.9-0.5-3.8c0-0.1,0-0.2-0.1-0.2c-0.1-0.1-0.5,0-0.8,0
		c-0.2,0-0.4,0.1-0.6,0.1s-0.3,0.1-0.4,0.1h-0.1c-0.6,0.1-0.6,0.3-0.5,0.7c0,0.1,0,0.1,0,0.2c0.1,1.9,0.4,3.1,0.4,3.1l1.6,8
		C66,74.6,66.6,75.9,67.3,75.7z M64.5,63.5c-0.1-0.3,0.1-0.6,0.4-0.7c0.3-0.1,0.6,0.1,0.7,0.4c0.1,0.3-0.1,0.6-0.4,0.7
		C64.9,64,64.6,63.8,64.5,63.5z M65.2,67.5c-0.1-0.3,0.1-0.6,0.4-0.7s0.6,0.1,0.7,0.4s-0.1,0.6-0.4,0.7C65.6,68,65.3,67.8,65.2,67.5
		z M66,71.3c-0.1-0.3,0.1-0.6,0.4-0.7s0.6,0.1,0.7,0.4s-0.1,0.6-0.4,0.7C66.3,71.8,66.1,71.6,66,71.3z"/>
	<path d="M62.8,62.9c0-0.1,0-0.2,0-0.2c-0.1,0-0.3,0-0.5,0h-0.2c-0.3,0-0.9,0.1-1.1,0.1h-0.1c-0.6,0.1-0.5,0.2-0.5,0.6
		c0,0.1,0,0.1,0,0.2c0,1.9,0.2,3.1,0.2,3.1L62,78.3c0.2,0.7,0.7,2,1.4,1.9c0,0,0,0,0.1,0c1-0.2,1.1-1.8,1.1-2L63,66.7
		C62.9,65.2,62.8,63.8,62.8,62.9z M61,64.1c0-0.3,0.2-0.6,0.5-0.6s0.6,0.2,0.6,0.5c0,0.3-0.2,0.6-0.5,0.6S61,64.4,61,64.1z
		 M61.3,68.2c0-0.3,0.2-0.6,0.5-0.6s0.6,0.2,0.6,0.5s-0.2,0.6-0.5,0.6S61.4,68.5,61.3,68.2z M61.8,72.3c0-0.3,0.2-0.6,0.5-0.6
		s0.6,0.2,0.6,0.5s-0.2,0.6-0.5,0.6C62.1,72.9,61.8,72.6,61.8,72.3z M63.4,76.4c0,0.3-0.2,0.6-0.5,0.6s-0.6-0.2-0.6-0.5
		s0.2-0.6,0.5-0.6C63.1,75.8,63.4,76,63.4,76.4z"/>
	<path d="M59.2,63.2c0-0.1,0-0.2,0-0.2c-0.1-0.1-0.5-0.1-0.8,0c-0.1,0-0.3,0-0.5,0s-0.4,0-0.6,0h-0.1c-0.6,0.1-0.6,0.3-0.6,0.7
		c0,0.1,0,0.1,0,0.2c0,1.9,0.2,3.1,0.2,3.1l1.4,11.6c0.2,0.7,0.7,2,1.4,1.9c0,0,0,0,0.1,0c1-0.2,1.1-1.8,1.1-2L59.4,67
		C59.2,65.6,59.2,64.2,59.2,63.2z M57.3,64.5c0-0.3,0.2-0.6,0.5-0.6s0.6,0.2,0.6,0.5S58.2,65,57.9,65C57.7,65,57.4,64.8,57.3,64.5z
		 M57.7,68.6c0-0.3,0.2-0.6,0.5-0.6s0.6,0.2,0.6,0.5s-0.2,0.6-0.5,0.6S57.7,68.9,57.7,68.6z M58.2,72.7c0-0.3,0.2-0.6,0.5-0.6
		s0.6,0.2,0.6,0.5s-0.2,0.6-0.5,0.6S58.2,73,58.2,72.7z M59.8,76.7c0,0.3-0.2,0.6-0.5,0.6s-0.6-0.2-0.6-0.5s0.2-0.6,0.5-0.6
		C59.4,76.2,59.7,76.4,59.8,76.7z"/>
	<path d="M53.7,66.8l0.7,7.9c0.2,0.8,0.6,2,1,1.9l0,0c0.7-0.1,0.9-1.4,0.9-1.9l-0.7-7.8c-0.1-1.4-0.1-2.8-0.1-3.7
		c0-0.3,0-0.4-0.6-0.4c-0.3,0-0.6-0.1-0.8-0.1c-0.1,0-0.2,0-0.2,0c-0.1,0-0.1,0-0.2,0c-0.1,0-0.2,0-0.2,0.6c0,0.1,0,0.1,0,0.2
		C53.6,65.2,53.7,66.7,53.7,66.8z M55.7,72.6c0,0.3-0.2,0.6-0.4,0.6c-0.3,0-0.5-0.2-0.5-0.5s0.2-0.6,0.4-0.6S55.7,72.3,55.7,72.6z
		 M55.3,68.3c0,0.3-0.2,0.6-0.4,0.6c-0.3,0-0.5-0.2-0.5-0.5s0.2-0.6,0.4-0.6S55.3,68,55.3,68.3z M54.5,63.7c0.3,0,0.5,0.2,0.5,0.5
		c0,0.3-0.2,0.6-0.4,0.6c-0.3,0-0.5-0.2-0.5-0.5C54.1,64,54.3,63.7,54.5,63.7z"/>
	<path d="M66.6,61.1c0.1,0.2,0.2,0.4,0.3,0.6c0.1,0.6,0.2,1.5,0.4,2.4c1-0.4,1.9-0.7,2.7-1.1c-0.1-0.8-0.2-1.8-0.3-2.1
		c-0.1-0.3-0.3-0.7-0.5-0.9C68.3,60.5,67.4,60.8,66.6,61.1z M68.6,62.7c-0.3,0.1-0.6-0.1-0.7-0.4s0.1-0.6,0.4-0.7
		c0.3-0.1,0.6,0.1,0.7,0.4C69.1,62.3,68.9,62.6,68.6,62.7z"/>
	<path d="M60.9,61.6c1.4-0.1,2.9-0.5,4.5-1c0-0.9,0.2-3.1,0.4-3.5c0.1-0.2,0.2-1,0.4-2c-1.1,0.3-4.3,0.9-7-0.7l0.4,6
		c0,0-0.7-3.9-1.2-6.3c-0.7,0.3-3.2,1.1-4.5,0.9c0.4,0.9,0.6,1.5,0.6,1.5c0.6,3.8,1.3,4.8,1.6,5.1C57.7,61.6,59.5,61.7,60.9,61.6z"
		/>
	<path d="M72.1,43.2c-0.3,1.5-1.9,3.7-4.1,4.5c-2.5,1-7.6,0.6-9.5-1.1c-0.2-0.2-0.4-0.5-0.5-0.8c-0.5,0.5-1.7,1.7-2.9,2
		c-1.6,0.5-4.9,0.8-6.7-0.5l0.4,0.8c0,0,1.3,5.2,1.3,7.4c0,1.7,1.6,4.4,2.2,5.4c0.5,0.1,1.2,0.2,2.2,0.3c-1-1.9-1.1-6.1-1.6-6.9
		c-0.5-1-0.9-3.6-0.9-3.6c0.3,0.5,0.7,1.6,1.2,2.7c0,0,0,0,0,0.1l0,0C54,53.6,57,54,58,52.7c-0.5-2-0.4-4.6-0.4-4.6l0.3-1.3l0.8,1.3
		l0.4,4.9c0.7,0.3,2.7,1.1,4.5,1.1c1.5,0,2.3,0,2.6,0c0.2-1.5,0.4-3,0.4-3s0.6,3.3,0.1,5.4c-0.4,1.7-0.3,3.1-0.3,3.6
		c1.7-0.7,3.3-1.5,4.2-2.2c0.2-0.4,0.4-0.9,0.5-1.4l0.1-2.8c0.1-1.1,0.4-2.1,1-3.1s1.3-2.3,1.9-3.6C73.6,45.9,72.8,44.4,72.1,43.2z"
		/>
	<path d="M72,28c-2.7,0.3-5-0.8-5-0.8s-3.9,7.8-4.7,8.6c-0.4,0.4-1.8,1.2-3.5,1.7c-0.2,1.1-0.6,3.3-0.3,5c0.5,4.1,1.4,4.5,6.1,4.7
		c3.9,0.2,6.6-3.2,7.3-4.2c-0.8-1.3-1.4-2.3-1.4-2.3c1.6,0.8,2.6,2.2,2.6,2.2l2.1,2.9c1.6,1.9,3.4,3.8,3.4,3.8
		c1.6-1.1,3.9-0.6,3.9-0.6s-2.7,0.2-4.2,2.1c-1.5,1.8-1,7.8-0.2,7.7s2.7,0.9,2.7,0.9s-2.7-0.9-5.8,0c-3.1,0.9-1.7,2.6-1.1,3
		c0.6,0.3,0.8-1,1.3-1s1.3,0.9,1.6,1.9c0.3,1-3,2.3-1.7,3.1s3.1-2.2,3.1-1.4c0,0.8-2.1,2.5-1.3,2.7c0.7,0.2,3.1-2,3.1-2
		s0,0.7-0.5,1.3c-0.5,0.6-1.8,1.3-1.8,1.3l1.2,0.5c2.3,0.5,4.9-5,5-6.3c0.2-1.2,4.4-8.1,4.1-11.6s-3.2-8.1-4-9
		c-0.5-0.5-0.5-1.9-0.4-2.9c0.1-1.1-0.1-2.2-0.5-3.2c-1-2.5-2.8-4.6-2.8-4.6C78.4,29.7,75,27.7,72,28z"/>
	<path d="M38.9,51c0.4-0.6-0.6-1.8-0.6-1.8c0.1-0.6-0.8-2-0.8-2c0.1-0.8-1.2-2.2-1.2-2.2c0-1.2-1.5-1.5-1.5-1.5c-0.1,0-0.1,0-0.2,0
		c-1.1,0-3.1,1.7-4.2,2.5s-0.7,2.8-0.7,2.8c0,0.4,1.1,3.8,2.9,5.1c0.3,0.2,0.6,0.3,0.9,0.3C35.7,54.1,38.6,51.5,38.9,51z"/>
	<path d="M36.2,43.1c0,0,0-1.2-0.5-1.9s-1.4-1.2-2.3-0.4l0.9,1.8C34.3,42.6,35.6,42.5,36.2,43.1z"/>
	<path d="M72.8,59.7c0-0.1-0.1-0.2-0.2-0.4c-0.3-0.7-0.7-0.9-0.9-0.9c-0.8,0.5-1.5,1-2.3,1.4c0.2,0.2,0.5,0.6,0.6,1s0.3,1.2,0.5,1.9
		c0.8-0.5,1.4-0.8,1.7-1.1c-0.1-0.2-0.1-0.5-0.1-0.8C72.2,60.4,72.4,60,72.8,59.7z M71.6,60.9c-0.3,0.1-0.6-0.1-0.7-0.3
		c-0.1-0.3,0.1-0.6,0.3-0.7c0.3-0.1,0.6,0.1,0.7,0.3C72.1,60.5,71.9,60.8,71.6,60.9z"/>
	<path d="M37.3,44.6c0.4,0.5,1.1,1.4,1.2,2.3c0.4,0.6,0.8,1.3,0.8,1.9c0.4,0.6,1.1,1.9,0.4,2.8c0,0-0.1,0.1-0.1,0.2l0.3,0.5
		c0,0,2-0.3,3-4.7c0,0-1.5-2.1-3.7-2.9c0,0,0.8-0.6,4.4,1.7c0,0,2.2-4,3.1-6c0,0,0.3,2.9,0.8,4.9c0.7,0.6,1.9,1.5,3.1,1.8
		c2.1,0.5,4.3,0,5.2-1.1c0.5-0.7,1.2-1.4,1.7-1.7c-0.4-2.4-0.1-5.6,0-6.5c-1.2,0.2-2.4,0.1-3.4-0.3c-3.2-1.2-3.4-3.6-2.8-5.5
		c0.6-1.8,0-5.5,0-5.5s-1.4,1.5-3.6,1.9c-1.1,0.2-2.4,0.4-3.7,0.7c-3.8,0.9-5.7,8.1-6.1,9.9c-0.3,1.1-0.9,2.9-1.4,4.1
		C36.8,43.5,37.2,43.9,37.3,44.6z"/>
	<path d="M24.4,32l6.3,12.4c1-0.7,1.9-1.4,2.8-1.7l-6.2-12.2L24.4,32z"/>
	<path d="M38.6,52.7c-0.7,0.6-1.7,1.3-2.7,1.8l1.3,2.6l2.9-1.5L38.6,52.7z"/>
</g>
</svg>
