<?xml version="1.0" encoding="utf-8"?>
<!-- Generator: Adobe Illustrator 22.1.0, SVG Export Plug-In . SVG Version: 6.00 Build 0)  -->
<svg version="1.1" xmlns="http://www.w3.org/2000/svg" xmlns:xlink="http://www.w3.org/1999/xlink" x="0px" y="0px"
	 viewBox="0 0 100 100" style="enable-background:new 0 0 100 100;" xml:space="preserve">
<g id="Layer_2">
</g>
<g id="Layer_1">
	<g>
		<path d="M22,36.7L8.3,40.3c2.5,0.8,5.1,1.1,7.7,1c0.7,0,1.3-0.1,2-0.2c0.3,0,0.7-0.1,0.9-0.2l0.5-0.1l0.5-0.1
			c0.3-0.1,0.6-0.1,0.9-0.2l0.9-0.3c0.6-0.2,1.3-0.5,1.8-0.7c2.4-1,4.6-2.4,6.5-4.1c0.2-0.2,0.5-0.5,0.7-0.7
			c0.2-0.2,0.5-0.5,0.7-0.7c0.5-0.5,0.9-0.9,1.3-1.5c0.8-0.9,1.5-1.8,2.2-2.9c0,0,0,0-0.1-0.1c-0.9-1-0.8-2.5,0.2-3.4l2.4-2.3
			c0.1-0.3,0.2-0.7,0.2-1c0.2-1.1-0.2-2.3-1.1-2.9l0,0c-0.6-0.3-1.1-0.6-1.6-0.8c2.9-0.9,3.9-2.5,4.2-3.2c2.5-4.6-3-10.7-3.6-11.4
			c-0.9-1-2.4-2.4-4.9-2.8c-0.1,0-0.2,0-0.5,0C28.3,1.5,26.3,2,25,3.3c-0.7,0.6-1.3,1.4-1.7,2.5c-1.1,2.8-0.3,6.2,2.1,8.5
			c0.2,0.2,0.3,0.5,0.3,0.7c0,0.3-0.1,0.6-0.3,0.8c-0.2,0.2-0.5,0.3-0.8,0.3h-3.2c-0.7,0-1.3,0.3-1.6,0.8l-1,1.3l0.1,0.2L22,36.7z"
			/>
		<path d="M43.3,18.5l0.7,0.1l-8.4,7.9c-0.7,0.7-0.8,1.8-0.1,2.6c0.1,0.2,0.3,0.3,0.6,0.5l9.1,4.8v-0.1L45.1,34c0-0.1,0-0.2-0.1-0.2
			v-0.2c0-0.2-0.1-0.3-0.1-0.6l-0.1-0.8c0-0.1,0-0.2,0-0.2v-1c0-0.2,0-0.3,0-0.6v-0.1c0-0.3,0.1-0.7,0.1-1c0-0.1,0-0.2,0.1-0.3
			c0-0.1,0-0.1,0-0.2c0-0.1,0-0.2,0.1-0.3c0-0.1,0-0.1,0.1-0.2v-0.1l0,0c0-0.1,0-0.2,0.1-0.2c0-0.1,0.1-0.2,0.1-0.2
			c0-0.1,0.1-0.2,0.1-0.3c0,0,0-0.1,0.1-0.2c0-0.1,0-0.1,0.1-0.2c0.1-0.2,0.2-0.3,0.2-0.6c0.5-0.8,0.9-1.6,1.5-2.2l0.1-0.1
			c-0.8-0.1-1.6-0.2-2.5-0.3l-1.6-0.2l1.6-0.3c0.8-0.2,1.7-0.3,2.5-0.5c0.8-0.1,1.6-0.2,2.5-0.5l2.8-0.5l-2,2.3
			c-0.2,0.2-0.5,0.6-0.7,0.8c-0.1,0.1-0.2,0.3-0.3,0.5s-0.2,0.3-0.2,0.5c-0.3,0.6-0.6,1.3-0.8,2c-0.2,0.6-0.3,1.3-0.3,2v0.1
			c0,0.1,0,0.2,0,0.3c0,0.1,0,0.1,0,0.2v0.2c0,0.1,0,0.1,0,0.2c0,0.1,0,0.2,0,0.2l0.1,0.7v0.1v0.1l0.1,0.5l0.1,0.5v0.1v0.1l0,0
			c0,0,0,0.1,0.1,0.2c0,0.1,0.1,0.1,0.1,0.2l0.2,0.5l0.1,0.1c0.1,0.2,0.2,0.5,0.5,0.7c0.3,0.6,0.8,1,1.3,1.4
			c0.2,0.2,0.5,0.5,0.7,0.6c0.1,0.1,0.2,0.1,0.3,0.2c0.9,0,2,0,3,0c0.1-0.1,0.2-0.1,0.3-0.2c0.2-0.2,0.6-0.5,0.8-0.6
			c0.1-0.1,0.1-0.1,0.2-0.2l0,0c0.1-0.1,0.2-0.2,0.2-0.2l0.1-0.1c0.1-0.1,0.1-0.2,0.2-0.2l0.1-0.1l0.1-0.1l0,0l0.1-0.1l0.1-0.1
			c0.1-0.2,0.3-0.5,0.5-0.7l0.1-0.1l0.2-0.5c0-0.1,0.1-0.1,0.1-0.2c0-0.1,0-0.1,0.1-0.2l0.1-0.2v-0.1v-0.1l0.1-0.5l0.1-0.6v-0.1
			l0.1-0.7c0-0.1,0-0.2,0-0.2c0-0.1,0-0.1,0-0.2c0-0.2,0-0.3,0-0.6c0-0.1,0-0.2,0-0.3c-0.1-0.7-0.2-1.3-0.3-2
			c-0.2-0.7-0.5-1.3-0.8-2c-0.1-0.2-0.2-0.3-0.2-0.5c-0.1-0.1-0.2-0.3-0.3-0.5c-0.2-0.2-0.5-0.6-0.7-0.8l-2-2.3l2.8,0.5
			c0.9,0.1,1.7,0.2,2.5,0.5c0.2,0,0.6,0.1,0.8,0.1l-2-3.1h0.5c0.6-0.1,1.7-0.3,2.6-1.3l0,0c0.7-0.8,1-1.6,1.1-2.3
			c-0.6,0.6-1.5,1.1-2.5,1.3c-0.7,0-2-0.1-2.2-0.8c-0.2-0.6,0.3-1.1,0.9-1.7c0.2-0.2,0.5-0.5,0.7-0.7c1-1.3,1.4-3.6,0.9-5.9
			c-0.6-2.9-2-5.1-3.8-6.1C56.7,1.6,55.6,1,53.8,1l0,0c-1.7,0-3.2,0.5-4.4,1.3c-0.8,0.6-1,1-1.5,1.8c-0.3,0.6-0.7,1.3-1.4,2.2
			c-1.3,1.5-2.3,2.2-3.2,2.8s-1.3,0.8-1.3,1.5c-0.1,0.9,0.8,1.7,1.6,2.5c0.9,0.8,1.7,1.6,1.4,2.5c-0.1,0.8-1.1,1.1-2,1.1l0,0
			c-1,0-2-0.8-2.5-2c0,0.6,0,1.3,0.3,2C41.7,18.2,43.2,18.5,43.3,18.5z"/>
		<path d="M61.7,82.6c-0.1-2.6,0-5.4,0.3-8s0.9-5.3,1.5-7.8c0.6-2.5,1.3-5.2,1.6-7.7c0.5-2.5,0.6-5.2,0.5-7.8
			c-0.1-1.3-0.2-2.6-0.6-3.9l-0.1-0.9c-0.1-0.3-0.1-0.7-0.2-0.9c-0.1-0.7-0.3-1.3-0.6-1.8c-0.5-1.3-0.9-2.5-1.4-3.7
			c-0.6-1.1-1.1-2.3-1.8-3.3l0,0c0,0,0,0,0,0.1l0,0c-0.5,0.8-1.1,1.5-1.8,2.2c-0.3,0.3-0.7,0.7-1,0.9c-0.5,0.3-0.8,0.6-1.3,0.8
			l-0.6,0.1h-0.6c-0.7,0-1.4,0-2,0c-0.7,0-1.5,0-2.2,0h-0.6l-0.5-0.2c-0.5-0.2-0.8-0.5-1.3-0.8l0,0c-0.9,1-1.7,2.1-2.4,3.2
			c-0.3,0.6-0.7,1.3-0.9,1.8l-0.2,0.5c-0.1,0.1-0.1,0.3-0.2,0.5c-0.1,0.3-0.2,0.7-0.3,0.9c-0.8,2.6-0.9,5.4-0.6,8.2
			c0.3,2.8,1.1,5.4,1.8,8c0.7,2.6,1.4,5.4,1.7,8.3c0.1,1.4,0.1,2.9,0,4.2l-0.1,1v1.1c-0.1,0.3-0.1,0.7-0.2,1c-0.1,0.3-0.2,0.7-0.3,1
			c-1,2.6-2.5,5.1-4.2,7.3c-1.7,2.3-3.6,4.4-5.7,6.2c-2.1,1.8-4.5,3.4-6.9,4.7l0,0l0,0c4.7-2.9,8.7-6.9,11.9-11.4l0.6-0.8
			c0.2-0.2,0.3-0.6,0.6-0.9c0.3-0.6,0.7-1.1,1-1.7c0.7-1.1,1.3-2.4,1.7-3.7c0.1-0.3,0.2-0.7,0.3-0.9c0.1-0.3,0.1-0.7,0.2-0.9l0.1-1
			l0.1-1c0.1-1.4,0.1-2.8,0-4c-0.5-5.4-2.8-10.7-3.3-16.3c-0.1-1.4-0.1-2.9,0-4.2s0.5-2.8,0.9-4.1c0.5-1.4,1.1-2.6,1.8-3.8
			c0.3-0.6,0.8-1.1,1.3-1.7c0.5-0.5,0.9-0.9,1.4-1.4c-0.3-0.2-0.7-0.6-1-0.9c-0.7-0.7-1.3-1.4-1.8-2.2c-0.3-0.5-0.6-0.9-0.7-1.3
			c0-0.1-0.1-0.2-0.1-0.3v-0.1L35.8,30c-0.2-0.1-0.5-0.3-0.7-0.6l0,0c0,0.1-0.1,0.2-0.1,0.3c-0.6,1-1.1,2.1-2,3.1
			c-0.3,0.6-0.8,1-1.3,1.5c-0.2,0.2-0.5,0.5-0.7,0.7c-0.2,0.2-0.5,0.5-0.7,0.7c-1,0.9-2.1,1.7-3.2,2.4c-1.1,0.7-2.3,1.4-3.6,1.8
			c-0.6,0.2-1.3,0.5-1.8,0.7l-0.9,0.3c-0.1,0-0.3,0.1-0.5,0.1l-0.5,0.1l-0.5,0.1l-0.5,0c-0.3,0-0.7,0.1-1,0.1
			c-0.5,0-0.8,0.1-1.3,0.1c-0.3,6.2-1.1,12.7-3.1,20.7C11,73.7,6.9,83.1,2.9,90.6c9,3.4,18.3,5.9,27.6,7.1l0,0l0,0l0.5,0.1
			c11.6,1.6,23.4,1.6,35,0c-1.3-2.4-2.2-4.8-2.9-7.3C62.3,87.9,61.8,85.3,61.7,82.6z"/>
		<path d="M97,10.9c-3.4,2.1-7.8,2.1-11.4,0c-0.1,1.1-0.5,4.8,1.7,8.3c0.5,0.7,0.9,1.3,1.4,1.7l0,0l0.5,3.4c0,0.2,0,0.6-0.1,0.8
			c-0.3,0.8-0.7,1.7-1,2.6c-0.6,1.6-0.9,3.1-1.1,4.5h-0.1c0.1-1.7,0.1-5.5-2.8-8.6c-1.1-1.3-2.9-2.3-3.9-2.8c1-0.7,2.3-1.8,2.5-3.4
			c0.2-1.8-1.3-2.8-2.5-5.1C77.8,7.7,80.2,4.2,78,2.3c-0.8-0.7-2.3-1.3-5.5-0.3c-3.8-0.5-5.2,0.3-5.7,1.1c-1.4,2,1.1,4.6-0.3,7.7
			c-0.9,1.7-2.2,1.7-2.6,3.6c-0.5,2,0.8,2.8,0.3,4.2c-0.5,1.5-2,1.8-3.4,2.6c-0.1,0-0.2,0.1-0.2,0.1l0.8,1.3h0.1l0,0l0.1,0.1
			c0.1,0,0.2,0,0.3,0.1l0.1,0.1c-0.1,0-0.1,0-0.2,0l0.1,0.1l0,0l0,0l7.2,11.3c0.5,0.8,0.5,1.6-0.1,2.4c-0.5,0.6-1,0.9-1.7,0.9
			c-0.1,0-0.3,0-0.5,0l-5.7-1c0.3,0.5,0.7,0.9,1,1.5c0.3,0.6,0.7,1.1,1,1.7c0.3,0.6,0.6,1.1,0.9,1.8c0.2,0.6,0.6,1.3,0.8,1.8
			c0.1,0.3,0.2,0.6,0.3,0.9c0.1,0.3,0.2,0.6,0.3,0.9c0.1,0.3,0.2,0.7,0.3,0.9l0.2,0.9c0.3,1.3,0.6,2.6,0.7,3.9
			c0.2,2.6,0.1,5.4-0.2,8c-0.3,2.6-1,5.3-1.6,7.8c-0.3,1.3-0.6,2.5-0.9,3.9c-0.2,1.3-0.5,2.5-0.7,3.9c-0.2,1.3-0.3,2.6-0.5,3.9
			l-0.1,1v1c0,0.3,0,0.7,0,1s0,0.7,0,1c0,0.7,0,1.3,0.1,2c0,0.7,0.1,1.3,0.2,2c0.1,1.3,0.3,2.6,0.7,3.9c0.6,2.5,1.4,5.1,2.4,7.6
			c9.5-1.4,18.9-3.8,28.1-7.2c-6.8-8.8-8.3-16.2-8.3-21.4c0-0.1,0-0.2,0-0.3c0.1-9.5,5.3-16.4,1.1-22.6c-1.5-2.2-4.1-4.2-4.8-8.6
			c-0.3-2.1-0.1-3.9,0.1-5.2l0.1-0.2c0.1,0.7,0.3,2.3,1.4,3.8c1,1.5,2.3,2.2,2.9,2.5c1-1.1,3-3.4,4-6.8c0.7-2.3,0.8-4.2,0.7-5.7
			c0-0.3,0.1-0.7,0.3-0.9l2.1-2c0.7-0.7,1.1-1.7,1.1-2.6v-0.6v-0.6l0,0c0-0.1,0.1-0.1,0.1-0.2C97.4,15.7,97.2,12,97,10.9z
			 M88.8,16.3c-0.2-0.1-0.5-0.2-0.7-0.6c0.2-0.3,0.5-0.5,0.7-0.6C89,15,89.3,15,89.5,15c0.2,0,0.5,0,0.7,0.1
			c0.2,0.1,0.5,0.2,0.7,0.6c-0.2,0.3-0.5,0.5-0.7,0.6c-0.2,0.1-0.5,0.1-0.7,0.1C89.3,16.4,89,16.4,88.8,16.3z M92.6,19.4
			c-0.1,0.1-0.3,0.2-0.5,0.2l-0.7,0.1h-0.1c-0.5,0-0.9-0.1-1.3-0.5c-0.3-0.3-0.6-0.7-0.6-1.1c0.3,0.2,0.6,0.5,0.9,0.6
			c0.3,0.1,0.6,0.1,0.9,0.1s0.6,0,0.9-0.1c0.3-0.1,0.6-0.3,0.9-0.6C93.2,18.7,92.9,19,92.6,19.4z M93.9,16.3
			c-0.2,0.1-0.5,0.1-0.7,0.1c-0.2,0-0.5,0-0.7-0.1c-0.2-0.1-0.5-0.2-0.7-0.6c0.2-0.3,0.5-0.5,0.7-0.6c0.2-0.1,0.5-0.1,0.7-0.1
			c0.2,0,0.5,0,0.7,0.1c0.2,0.1,0.5,0.2,0.7,0.6C94.2,15.9,94,16.2,93.9,16.3z"/>
		<path d="M8.7,39.5l12.6-3.2l-3-17l-0.1-0.5l-1.3-5.9L6.4,15.2l-3.1,4.9L8,39.7L8.7,39.5z M11.2,34.3L8.4,35l-0.3-1l3.7-0.9
			l6.7-1.6l0.2,1L11.2,34.3z M18.4,29.5l0.2,1l-6.4,1.6L8.4,33l-0.2-1l4.7-1.1L18.4,29.5z M6.1,21.3l9.9-2.4l0.2,1l-9.9,2.4
			L6.1,21.3z M6.5,23.4l9.9-2.4l0.2,1l-9.9,2.4L6.5,23.4z M7.6,30.2l6.2-1.5l4-1l0.2,1l-4.8,1.1l-5.4,1.4L7.6,30.2z"/>
		<path d="M62.4,31.8c0,0.1,0,0.1,0,0.2l-0.1,0.8c0,0.2-0.1,0.3-0.1,0.6l-0.1,0.2c0,0.1,0,0.1,0,0.2l-0.1,0.3c0,0.2-0.1,0.3-0.2,0.6
			l0,0c-0.1,0.1-0.1,0.3-0.2,0.5c0,0,0,0,0,0.1c-0.1,0.1-0.1,0.3-0.2,0.5c0,0,0,0,0,0.1C61.1,36,61,36.3,61,36.4l0,0l5.7,0.9
			c0.8,0.1,1.5-0.1,2-0.8c0.5-0.7,0.5-1.5,0.1-2.2l-7.3-11.1c-0.1,0-0.2,0-0.2,0h-0.1c-0.1,0-0.2,0-0.3,0h-0.1c-0.1,0-0.2,0-0.3,0
			c0,0,0,0-0.1,0c-0.1,0-0.3,0-0.5,0h-0.3c0.1,0.1,0.3,0.3,0.5,0.5c0.6,0.7,1,1.4,1.5,2.2c0.3,0.7,0.7,1.6,0.9,2.5
			c0,0.2,0.1,0.5,0.1,0.7c0,0.2,0.1,0.5,0.1,0.7l0,0c0,0.1,0,0.1,0,0.2c0,0.1,0,0.3,0,0.5l0,0L62.4,31.8z"/>
	</g>
</g>
</svg>
