<?xml version="1.0" encoding="utf-8"?>
<!-- Generator: Adobe Illustrator 22.1.0, SVG Export Plug-In . SVG Version: 6.00 Build 0)  -->
<svg version="1.1" xmlns="http://www.w3.org/2000/svg" xmlns:xlink="http://www.w3.org/1999/xlink" x="0px" y="0px"
	 viewBox="0 0 100 100" style="enable-background:new 0 0 100 100;" xml:space="preserve">
<g id="Layer_2">
</g>
<g id="Layer_1">
	<path d="M98,34.9L98,34.9c-3.8-1.8-7.2-3.9-10.4-6.4c0,0-0.1-0.1-0.2-0.1c-1.5-0.1-4.3-0.9-5.3-1.2c-0.2-0.1-0.3-0.3-0.3-0.5
		c0.2-1.1,0.5-2.1,0.9-3.1c0.1-0.3-0.1-0.5-0.4-0.5c-4.9,1-9.2,3.3-12.7,6.6c-3.6,3.4-6.3,7.9-7.5,12.9c-0.4,1.7-1.4,3.2-2.7,4.3
		c-0.5,0.4-1.1,0.6-1.8,0.6c-0.8-0.1-1.6-0.2-2.5-0.2c-0.1,0-0.3-0.1-0.3-0.2c-3.6-10.4-3.6-21.8-0.1-32.2c0.4-1.1-0.5-2.1-1.6-2
		C36,15.3,18.6,13.1,2.6,6.5C2.3,6.4,2.1,6.6,2.1,6.9c0.1,1.4,0.5,2.7,1.4,3.8c0.2,0.3-0.1,0.7-0.4,0.6c-0.4-0.2-0.9-0.4-1.3-0.6
		c-0.4-0.3-0.8,0-0.6,0.3c1,2,2.5,3.6,4.4,4.7c0.4,0.2,0.2,0.8-0.3,0.7c-0.6-0.1-1.2-0.3-1.8-0.5c-0.3-0.1-0.6,0.3-0.4,0.6
		c1.2,1.6,2.8,2.8,4.5,3.7C8,20.4,7.8,21,7.3,20.8H7.2c-0.4-0.1-0.6,0.3-0.4,0.6c1.5,1.6,3.4,2.9,5.5,3.6c0.4,0.1,0.3,0.7-0.1,0.7
		c-0.5,0-1-0.1-1.4-0.2s-0.6,0.4-0.3,0.6c1.8,1.5,3.8,2.7,6.1,3.2c0.4,0.1,0.3,0.7-0.1,0.7c-0.5,0-1.1,0-1.6-0.1
		c-0.4,0-0.6,0.4-0.2,0.7c1.5,1.1,3.2,1.8,5,2.3c0.4,0.1,0.4,0.7-0.1,0.7c-0.3,0-0.6,0-0.8,0c-0.4,0-0.5,0.5-0.2,0.7
		c2,1.2,4.2,2.1,6.5,2.5c0.5,0.1,0.4,0.8-0.1,0.8c0,0,0,0-0.1,0c-0.4,0-0.5,0.5-0.2,0.7c2.1,1.2,4.3,1.9,6.7,2.2
		c0.5,0.1,0.5,0.7,0,0.8h-0.1c-0.4,0.1-0.4,0.6-0.1,0.7c5,1.7,10.5,1.4,15.3-0.8c0.1-0.1,0.3,0,0.4,0.1c0.9,1.2,1.4,2.8,1.4,4.4
		c0,0.6-0.5,1.2-1.1,1.1c-6.3-0.2-17.2,0.4-19.8,0.5c-0.4,0-0.7-0.2-0.8-0.5c-1.6-3.3-5.1-5.4-8.9-5.1c-4,0.2-7.5,3-8.5,7
		c-1,3.8-1.5,7.6-1.4,11.5c0,1,0,2.1-0.3,3.1C7.2,64.7,6.4,66,5.4,67c-0.6,0.6-0.1,1.6,0.7,1.6c3.8-0.4,9.5-1.6,10.5-5.6
		c0.6-2.2,0.7-4.4,0.5-6.7C17,55,17.3,53.7,18,52.5c0.3-0.5,0.7-1,1.2-1.4c1.1-1,2.4-1.6,3.9-1.7c0.3,0,0.5,0.4,0.3,0.6
		c-5.4,6-5.2,15.1,0.4,21c0.1,0.1,0.1,0.2,0.1,0.3c-0.3,2-0.9,3.8-1.9,5.5c-1.2,2,0.4,4.5,2.7,4.5h3.5c0.1,0,0.2,0,0.3,0.1
		c1.2,1.4,2.5,3.1,3.7,5.3c1.2,2.2,1.9,4.3,2.4,6c0.1,0.3,0.4,0.5,0.7,0.5H40c0.6,0,1-0.6,0.7-1.2s-0.6-1.2-1-1.9
		c-1.1-1.7-2.3-2.7-2.7-3.1c-1.2-1-2.7-2.7-4.4-5.4c-0.1-0.2,0-0.4,0.2-0.4c0.9,0.1,2.9,0.4,4.1,1.5c1.1,1,1.5,2.2,1.7,2.8
		c0,0.2,0.2,0.3,0.3,0.3h4.8c0.3,0,0.4-0.3,0.3-0.5c-0.5-1.2-1.3-3-3-4.6c-3.2-3-7.1-3.3-9-3.3c-0.3,0-0.5-0.4-0.3-0.6
		c2.8-2.8,4.7-6.4,5.4-10.4c0-0.2,0.2-0.3,0.4-0.3c15,0.5,28,4.9,38.4,13.8c0.2,0.2,0.2,0.5-0.1,0.6C75,80.8,74.1,81,73.3,81
		c-0.2,0-0.3,0.1-0.4,0.3c-0.2,1.9-0.1,3.9,0.3,5.7c0,0.2,0.2,0.3,0.4,0.3c2.4-0.2,4.5-1.6,5.7-3.6c0.1-0.2,0.4-0.2,0.6-0.1
		c2,2.1,4,4.4,5.8,6.8c0.4,0.6,0.5,1.5,0.5,2.3c0,0.2,0.1,0.3,0.3,0.3c2,0.4,4,0.4,5.9,0c0.3,0,0.4-0.3,0.2-0.6
		c-0.4-0.6-0.9-1.2-1.3-1.8c-2.8-3.8-5.8-7.4-9.1-10.8c-0.9-0.9-1.3-2.2-1.1-3.5c0.4-2.5,0.6-5,0.6-7.5c0-0.4-0.2-0.8-0.5-1.1
		c-1.9-1.8-3.9-3.3-6.2-4.5c-0.6-0.3-0.8-0.9-0.7-1.7c1.3-7.8,4.2-15.3,8.5-21.8c0.1-0.1,0.2-0.2,0.3-0.2c2.5,0.3,5.1,0.2,7.6-0.5
		h0.1c1.2,0,2.3,0.7,2.9,1.8c0.1,0.1,0.1,0.2,0.2,0.2c1.6,0.3,3.3-0.4,4.1-1.8C99.2,38.1,99,36.2,98,34.9z M89,31.9l-1.2-0.4
		c-0.3-0.1-0.5-0.4-0.6-0.7L87,30.4c-0.1-0.3,0.3-0.6,0.5-0.4l1.7,1.4C89.5,31.6,89.3,32.1,89,31.9z M97.8,36.8
		c-0.1,0.2-0.1,0.4-0.2,0.6c-0.1,0.2-0.3,0.3-0.4,0.1v-0.1c-0.1-0.3-0.2-0.6-0.3-0.8c-0.1-0.2,0.1-0.5,0.3-0.6
		c0.4-0.2,0.7,0.1,0.6,0.5C97.9,36.6,97.9,36.7,97.8,36.8z"/>
</g>
</svg>
