<?xml version="1.0" encoding="utf-8"?>
<!-- Generator: Adobe Illustrator 22.1.0, SVG Export Plug-In . SVG Version: 6.00 Build 0)  -->
<svg version="1.1" id="Layer_1" xmlns="http://www.w3.org/2000/svg" xmlns:xlink="http://www.w3.org/1999/xlink" x="0px" y="0px"
	 viewBox="0 0 100 100" style="enable-background:new 0 0 100 100;" xml:space="preserve">
<path d="M56.9,1C35.6-0.5,17.8,15.6,16.4,36.2h-0.1v1c0,3.4-1.3,8.7-2.9,11.8c-1.7,3.2-3.4,6.3-4.8,8.5s0.2,5,2.8,5h5v18.2
	c0,3.7,3,6.6,6.6,6.6h10.4v9.1c0,1.7,1.7,2.9,3.3,2.4L80.3,84c1.5-0.5,2.5-1.9,2.5-3.5v-17c6-6.9,9.5-15.9,9.2-25.8
	C91.4,18.5,76.1,2.4,56.9,1z M56.6,58.9c-0.8,0.7-1.8,1.1-2.9,1.1c-1.1,0-2.1-0.4-3-1.1c-0.8-0.7-1.3-1.8-1.3-3.1
	c0-1.2,0.4-2.2,1.2-3s1.8-1.2,3-1.2s2.2,0.4,3,1.2s1.2,1.8,1.2,3C57.9,57.1,57.4,58.2,56.6,58.9z M67.1,33c-0.6,1.2-1.4,2.2-2.3,3.1
	c-0.9,0.9-2.5,2.3-4.8,4.4c-0.6,0.6-1.1,1.1-1.5,1.5s-0.7,0.8-0.9,1.2s-0.3,0.7-0.4,1.1c-0.1,0.4-0.3,1-0.5,1.9
	c-0.4,1.9-1.5,2.9-3.3,2.9c-1,0-1.8-0.3-2.5-1c-0.7-0.6-1-1.6-1-2.8c0-1.6,0.2-2.9,0.7-4.1c0.5-1.1,1.1-2.2,1.9-3
	c0.8-0.9,1.9-1.9,3.2-3.1c1.2-1,2.1-1.8,2.6-2.4c0.5-0.5,1-1.1,1.3-1.8c0.4-0.7,0.5-1.4,0.5-2.1c0-1.5-0.6-2.8-1.7-3.8
	c-1.1-1-2.5-1.5-4.3-1.5c-2.1,0-3.6,0.5-4.5,1.6c-1,1-1.8,2.6-2.5,4.6c-0.6,2.1-1.8,3.2-3.6,3.2c-1,0-1.9-0.4-2.6-1.1
	C40.4,31,40,30.2,40,29.3c0-1.8,0.6-3.6,1.7-5.4c1.1-1.8,2.8-3.3,5-4.5s4.7-1.8,7.6-1.8c2.7,0,5.1,0.5,7.2,1.5
	c2.1,1,3.7,2.4,4.8,4.1c1.1,1.7,1.7,3.6,1.7,5.6C68,30.4,67.7,31.8,67.1,33z"/>
</svg>
