<?xml version="1.0" encoding="utf-8"?>
<!-- Generator: Adobe Illustrator 22.1.0, SVG Export Plug-In . SVG Version: 6.00 Build 0)  -->
<svg version="1.1" id="Layer_1" xmlns="http://www.w3.org/2000/svg" xmlns:xlink="http://www.w3.org/1999/xlink" x="0px" y="0px"
	 viewBox="0 0 100 100" style="enable-background:new 0 0 100 100;" xml:space="preserve">
<polygon points="33.6,37.9 33.6,64.3 45,62.2 45,28.6 "/>
<polygon points="15.7,52.7 15.7,67.6 25.2,65.8 25.2,44.9 "/>
<polygon points="1.1,64.6 3.9,69.7 7.2,69.1 7.2,59.6 "/>
<polygon points="65.1,58.6 53.4,34 53.4,60.7 "/>
<path d="M55.8,28.4c-0.5,0-1-0.1-1.4-0.4c-1.1-0.8-1.3-2.2-0.6-3.3c1.5-2.2,3.9-2,5.4-1.9c0.3,0,0.8,0.1,1.1,0
	c-0.1-0.3-0.3-0.7-0.4-1c-0.6-1.3-1.5-3.5,0-5.7s3.9-2,5.4-1.9c0.3,0,0.8,0.1,1.1,0c-0.1-0.3-0.3-0.7-0.4-1c-0.6-1.3-1.5-3.5,0-5.7
	s3.9-2,5.4-1.9c0.4,0,1,0.1,1.2,0c0.8-1,2.2-1.2,3.3-0.5c1.1,0.8,1.3,2.2,0.6,3.3c-1.5,2.2-3.9,2-5.4,1.9c-0.3,0-0.8-0.1-1.1,0
	c0.1,0.3,0.3,0.7,0.4,1c0.6,1.3,1.5,3.5,0,5.7s-3.9,2-5.4,1.9c-0.3,0-0.8-0.1-1.1,0c0.1,0.3,0.3,0.7,0.4,1c0.6,1.3,1.5,3.6,0,5.7
	c-1.5,2.2-3.9,2-5.4,1.9c-0.4,0-1-0.1-1.2,0C57.2,28.1,56.5,28.4,55.8,28.4z"/>
<path d="M75.5,54.1c-2.2,0-3.7-1.8-4.6-3c-0.3-0.4-0.7-0.9-1-1.1c-1.2,0.1-2.3-0.7-2.6-1.9c-0.3-1.3,0.6-2.5,1.9-2.8
	c2.7-0.5,4.4,1.6,5.4,2.9c0.2,0.2,0.5,0.6,0.7,0.8c0.1-0.3,0.2-0.8,0.3-1.1c0.4-1.6,1.2-4.2,3.9-4.7c2.7-0.5,4.4,1.6,5.4,2.9
	c0.2,0.2,0.5,0.6,0.7,0.8c0.1-0.3,0.2-0.7,0.3-1c0.4-1.6,1.2-4.2,3.9-4.7c2.7-0.5,4.4,1.6,5.4,2.9c0.3,0.4,0.7,0.9,1,1.1
	c1.2-0.1,2.3,0.7,2.6,1.9c0.3,1.3-0.6,2.5-1.9,2.8c-2.7,0.5-4.4-1.6-5.4-2.9c-0.2-0.2-0.5-0.6-0.7-0.8c-0.1,0.3-0.2,0.7-0.3,1
	c-0.4,1.6-1.2,4.2-3.9,4.7c-2.7,0.5-4.4-1.6-5.4-2.9c-0.2-0.2-0.5-0.6-0.7-0.8c-0.1,0.3-0.2,0.8-0.3,1.1c-0.4,1.6-1.2,4.2-3.9,4.7
	C76,54.1,75.8,54.1,75.5,54.1z"/>
<polygon points="80.5,30.6 75.6,31.6 75.6,25.7 81.5,25.7 "/>
<polygon points="58.5,16.2 53.6,17.2 53.6,11.3 59.5,11.3 "/>
<polygon points="64,34.1 59.3,36.4 59.3,30.4 64,28.2 "/>
<polygon points="75.2,41.8 70.9,44 69.6,38.9 74.5,38.8 "/>
</svg>
