<?xml version="1.0" encoding="utf-8"?>
<!-- Generator: Adobe Illustrator 22.1.0, SVG Export Plug-In . SVG Version: 6.00 Build 0)  -->
<svg version="1.1" id="Layer_1" xmlns="http://www.w3.org/2000/svg" xmlns:xlink="http://www.w3.org/1999/xlink" x="0px" y="0px"
	 viewBox="0 0 100 100" style="enable-background:new 0 0 100 100;" xml:space="preserve">
<g>
	<path d="M29.1,26.3c0.2-0.8,0-3.3,0-3.3c0-1.5-0.1-1.8,0.7-3.1l0.4-0.6h-9.4c-2.7,0.5-4.2,5.4-4.2,5.4c-1.1-4.4,4.8-10.7,6.7-14.2
		c2.2-4.1-0.5-6.5-0.8-5.3s-4.4,3.4-4.4,3.4C7.2,13.5,5.3,21.8,5.3,21.8C4,29.4,6.6,31.1,11.1,32c6.9,1.4,15.2,1.4,15.2,1.4
		S27.3,28.4,29.1,26.3z"/>
	<path d="M94.7,21.8c0,0-1.9-8.4-12.8-13.1c0,0-4.1-2.2-4.4-3.4s-3.1,1.2-0.8,5.3c1.9,3.4,7.8,9.8,6.7,14.2c0,0-1.5-4.9-4.2-5.4
		h-9.4l0.4,0.6c0.8,1.3,0.7,1.6,0.7,3.1c0,0-0.2,2.5,0,3.3c1.8,2.1,2.8,7,2.8,7s8.3,0,15.2-1.4C93.4,31.1,96,29.4,94.7,21.8z"/>
	<path d="M83.8,34.9c-5.5-2.2-9.3,1.1-11.2,1.5c-0.8,0.2-1.4-0.3-1.9-1c0-0.2,0.1-0.4,0.1-0.5c0.3-1.3,0.1-2.7-0.6-3.9l-1.8-3.5
		v-4.4c0-1.3-0.4-2.5-1.3-3.5c-1.9-2.2-6.1-5-14.7-2.5c-2,0.8-4.7,0-4.7,0c-9.4-2.7-13.6,1-15.2,3.1c-0.5,0.7-0.8,1.6-0.8,2.5v4.8
		L29.8,31c-0.7,1.2-0.9,2.6-0.6,3.9c0,0.1,0,0.2,0,0.2c-0.5,0.8-1.2,1.5-2.1,1.3c-1.9-0.4-5.7-3.8-11.2-1.5
		c-3.8,1.5-1.9,7.9,4.6,9.6c5.2,1.4,7.5-2.8,10.1-2.3c0.4,1.8,0.7,3.4,0.9,4.4c0.5,2,3,8.9,4.8,13.8c0.3-1.4,0.9-3.4,2.5-5
		c0.9-0.9,1.4-2.2,1.4-3.5v-6c0,0,1,7.6,0.9,8.4c-0.1,0.7-5.4,5.1-3.2,10.4l0,0c0.2,0.5,0.3,0.8,0.3,0.8s2.4,4.6,11.1,4.6
		c0.2,0,0.4,0,0.5,0c0.2,0,0.4,0,0.5,0c8.7,0,11.1-4.6,11.1-4.6s0.3-0.7,0.7-1.8c2.2-5.4-3.1-9.7-3.2-10.4c-0.1-0.7,0.9-8.4,0.9-8.4
		V51c0,1.2,0.5,2.5,1.4,3.3c1.6,1.6,2.3,3.5,2.6,5c1.8-4.7,4-10.8,4.4-12.7c0.2-0.8,0.4-2,0.7-3.4c2.7-1.9,4.8,2.7,10.1,1.3
		C85.7,42.8,87.6,36.5,83.8,34.9z M40.9,39.1c-4.9,2-6.5-2.6-6.5-2.6C42,35,40.9,39.1,40.9,39.1z M47.6,64.3c0,0-0.5,0.9-3.1-1.3
		c-1.5-1.3-1.2-3-0.8-4.3c0.2-0.6,0.9-0.6,1.3-0.2c0.5,0.7,1.3,1.2,2.6,2.2C49.6,62.5,47.6,64.3,47.6,64.3z M57.1,63.1
		c-2.5,2.2-3.1,1.3-3.1,1.3s-2-1.8,0-3.4c1.4-1.2,2.3-1.7,2.8-2.5c0.2-0.4,0.8-0.4,0.9,0C58.3,59.7,58.8,61.7,57.1,63.1z M60.1,39.1
		c0,0-1.1-4.1,6.5-2.6C66.7,36.5,65,41,60.1,39.1z"/>
</g>
</svg>
