<?xml version="1.0" encoding="utf-8"?>
<!-- Generator: Adobe Illustrator 22.1.0, SVG Export Plug-In . SVG Version: 6.00 Build 0)  -->
<svg version="1.1" xmlns="http://www.w3.org/2000/svg" xmlns:xlink="http://www.w3.org/1999/xlink" x="0px" y="0px"
	 viewBox="0 0 100 100" style="enable-background:new 0 0 100 100;" xml:space="preserve">
<g id="Layer_2">
</g>
<g id="Layer_1">
	<path d="M84.5,32.6c-0.7,1-1.4,2.1-2.2,3.1c-0.8,1-1.6,1.1-2.7,0.5c-1.2-0.6-2.5-1.2-3.7-1.8c-1.2-0.5-1.9-0.2-2.3,1.1
		c-2.7,8-4.2,16.2-4.5,24.6c-0.2,4.8-0.1,9.6,0,14.4c-0.7-0.3-1.5-0.4-2.3-0.4c-1.2,0-2.4,0.4-3.4,1c-0.4-4-1-8-2.4-11.8
		c-0.7-1.8-1.6-3.6-2.4-5.3c-0.4-0.9-1.1-1.1-2.1-1c-4.2,0.7-8.3,1.3-12.6,1.1c-2.2-0.1-4.4-0.6-6.6-0.9c-0.3,0-0.6-0.2-0.9-0.3
		c-1.3-0.3-1.8,0-2.1,1.3c-0.7,3-1.3,5.9-2,8.9c-0.6,2.7-1.2,5.4-1.7,8.1c-1-0.6-2.1-1-3.4-1c-1,0-1.9,0.2-2.8,0.6
		c0-0.3,0-0.6,0-0.9c0-4.2,0-8.3,0-12.6V49h-0.6v12.2h0.6c-0.2,0-7.7,0-7.9,0c0-21.2,5.6-28.4,13.5-28.9h0.6c1,0.2,8.1,0.9,11.2,1.1
		c1.8,0.1,3.6,0.3,5.4,0.5c1.5,0.2,2.8-0.2,3.7-1.4c1.4-1.8,2.6-3.7,3.9-5.5c1.3-1.9,2.5-3.8,3.9-5.6c2-2.6,4.9-4,8.1-3.8
		c3,0.2,5.3-0.5,7-3.1c0.4-0.7,1.2-1.2,1.8-1.7c0.3-0.2,0.8-0.5,1-0.4c0.3,0.2,0.6,0.7,0.6,1.1c0,2-0.1,4-0.2,6
		c0,0.6,0.1,1.1,0.5,1.5c2.3,2.8,4.6,5.6,6.9,8.4C85.2,30.6,85.2,31.5,84.5,32.6z M75.4,22.7c-0.8-0.5-1.5-0.5-1.6-0.1
		s0.4,1.1,1.2,1.5c0.8,0.5,1.5,0.5,1.6,0.1C76.7,23.9,76.2,23.2,75.4,22.7z M19.8,78.9c-0.4,0.7-0.6,1.6-0.6,2.4
		c0,0.9,0.2,1.7,0.6,2.4h-2.7c-1.2,0-2.1-1-2.1-2.1V81c0-1.2,1-2.1,2.1-2.1H19.8z M27.1,75.3c3.4,0,6.1,2.7,6.1,6.1
		c0,3.4-2.7,6.1-6.1,6.1c-3.4,0-6.1-2.7-6.1-6.1C21.1,78,23.8,75.3,27.1,75.3z M27.1,83.8c1.3,0,2.4-1.1,2.4-2.4s-1.1-2.4-2.4-2.4
		s-2.4,1.1-2.4,2.4S25.8,83.8,27.1,83.8z M47.5,78.9h0.6h11.2c-0.4,0.7-0.6,1.6-0.6,2.4c0,0.9,0.2,1.7,0.6,2.4H48.1h-0.6H34.4
		c0.4-0.7,0.6-1.6,0.6-2.4c0-0.9-0.2-1.7-0.6-2.4H47.5z M66.7,75.3c3.4,0,6.1,2.7,6.1,6.1c0,3.4-2.7,6.1-6.1,6.1
		c-3.4,0-6.1-2.7-6.1-6.1C60.6,78,63.3,75.3,66.7,75.3z M66.7,83.8c1.3,0,2.4-1.1,2.4-2.4s-1.1-2.4-2.4-2.4s-2.4,1.1-2.4,2.4
		S65.3,83.8,66.7,83.8z M76.7,78.9c1.2,0,2.1,1,2.1,2.1v0.6c0,1.2-1,2.1-2.1,2.1H74c0.4-0.7,0.6-1.6,0.6-2.4c0-0.9-0.2-1.7-0.6-2.4
		H76.7z"/>
</g>
</svg>
